<?xml version="1.0" standalone="no"?>
<!DOCTYPE svg PUBLIC "-//W3C//DTD SVG 1.1//EN" "http://www.w3.org/Graphics/SVG/1.1/DTD/svg11.dtd" >
<svg xmlns="http://www.w3.org/2000/svg">
<metadata></metadata>
<defs>
<font id="lincolnmillerb_romanroman" horiz-adv-x="1587" >
<font-face units-per-em="2048" ascent="1565" descent="-483" />
<missing-glyph horiz-adv-x="483" />
<glyph unicode="&#xfb01;" horiz-adv-x="1183" d="M4 893v33h209v59q0 247 154 414q50 53 130.5 92t170.5 39q166 0 242.5 -60.5t76.5 -156.5q0 -42 -31 -79.5t-86 -37.5q-49 0 -79.5 30t-30.5 77q0 24 6.5 45t11 30t18.5 26.5t15 18.5q-2 32 -37.5 59t-118.5 27q-103 0 -179.5 -120.5t-76.5 -341.5v-121h330l254 16l8 -8 v-807q0 -73 56 -94q42 -16 90 -19v-14h-471v14q37 2 84 15q55 17 55 92v670q-6 66 -29 102h-377v-762q0 -71 56 -92q59 -23 102 -25v-14h-489v14q44 2 90 15q55 17 55 92v772h-209z" />
<glyph unicode="&#xfb02;" horiz-adv-x="1185" d="M4 893v33h209v63q0 243 154 410q50 54 130 92.5t169 38.5q117 0 213 -47l110 45l8 -8v-1387q0 -70 56 -94q51 -23 90 -25v-14h-473v14q39 2 86 15q57 18 57 92v1093q-27 7 -48.5 31.5t-21.5 63.5q0 29 13.5 52.5t28.5 38t16 15.5q-12 92 -148 92q-103 0 -178.5 -119 t-75.5 -341v-121h258v-33h-258v-762q0 -71 56 -92q59 -23 102 -25v-14h-489v14q44 2 90 15q55 17 55 92v772h-209z" />
<glyph unicode="&#xfb03;" horiz-adv-x="1783" d="M4 893v33h209v53q0 238 147 405q48 53 132.5 92.5t171.5 39.5q111 0 179.5 -45t94.5 -107q49 69 139 117.5t191 48.5q166 0 242.5 -60.5t76.5 -156.5q0 -42 -31 -79.5t-86 -37.5q-49 0 -79.5 30t-30.5 77q0 24 6.5 45t11 30t18.5 26.5t15 18.5q-2 32 -37.5 59t-118.5 27 q-103 0 -179.5 -120.5t-76.5 -341.5v-121h330l254 16l8 -8v-807q0 -73 56 -94q42 -16 90 -19v-14h-471v14q37 2 84 15q55 17 55 92v670q-6 66 -29 102h-377v-768q0 -71 56 -92q39 -15 112 -19v-14h-489v14q32 2 80 15q55 17 55 92v772h-414v-768q0 -71 56 -92q42 -16 92 -19 v-14h-479v14q44 2 90 15q55 17 55 92v772h-209zM399 926h414v55q0 99 31 213q-45 0 -70.5 26.5t-25.5 63.5q0 30 11 57t25 47t15 23q-4 30 -41.5 56t-108.5 26q-47 0 -89.5 -23.5t-79.5 -72.5t-59 -136.5t-22 -203.5v-131z" />
<glyph unicode="&#xfb04;" horiz-adv-x="1785" d="M4 893v33h209v53q0 238 147 405q48 53 132.5 92.5t171.5 39.5q221 0 272 -154q55 76 148.5 122t181.5 46q117 0 213 -47l110 45l8 -8v-1387q0 -70 56 -94q51 -23 90 -25v-14h-473v14q39 2 86 15q57 18 57 92v1093q-27 7 -48.5 31.5t-21.5 63.5q0 29 13.5 52.5t28.5 38 t16 15.5q-12 92 -148 92q-103 0 -178.5 -119t-75.5 -341v-121h258v-33h-258v-768q0 -71 56 -92q41 -16 100 -19v-14h-477v14q32 2 80 15q55 17 55 92v772h-414v-768q0 -71 56 -92q42 -16 92 -19v-14h-479v14q44 2 90 15q55 17 55 92v772h-209zM399 926h414v59q0 112 31 207 q-45 0 -70.5 27t-25.5 65q0 30 11 57t25 47t15 23q-4 30 -41.5 56t-108.5 26q-47 0 -89.5 -23.5t-79.5 -72.5t-59 -136.5t-22 -203.5v-131z" />
<glyph horiz-adv-x="0" />
<glyph horiz-adv-x="682" />
<glyph horiz-adv-x="0" />
<glyph horiz-adv-x="0" />
<glyph unicode=" "  horiz-adv-x="483" />
<glyph unicode="&#x09;" horiz-adv-x="483" />
<glyph unicode="&#xa0;" horiz-adv-x="483" />
<glyph unicode="!" horiz-adv-x="659" d="M195 117q0 56 39 95.5t94 39.5q57 0 96 -39.5t39 -95.5q0 -57 -39 -95t-96 -38q-56 0 -94.5 38t-38.5 95zM205 1298q0 57 35 98.5t90 41.5t90 -41.5t35 -98.5q0 -39 -22.5 -176t-53 -336t-45.5 -352h-12q-16 199 -66.5 512t-50.5 352z" />
<glyph unicode="&#x22;" horiz-adv-x="802" d="M88 1397q0 48 30 80t83 32t82.5 -32t29.5 -80q0 -21 -18 -84.5t-44.5 -162t-41.5 -183.5h-21q-17 111 -58.5 258.5t-41.5 171.5zM489 1397q0 48 30 80t83 32t83 -32t30 -80q0 -21 -18.5 -84.5t-45 -162t-41.5 -183.5h-20q-17 112 -59 259t-42 171z" />
<glyph unicode="#" horiz-adv-x="1052" d="M143 276v160l232 56v251l-232 -57v158l232 57v383h20v-377l260 68v309h23v-303l231 57v-157l-231 -58v-252l231 58v-156l-231 -57v-430h-23v422l-260 -66v-356h-20v348zM395 498l260 67v252l-260 -67v-252z" />
<glyph unicode="$" horiz-adv-x="1230" d="M135 281q0 85 37.5 133.5t99.5 48.5q52 0 79.5 -32t27.5 -87q0 -33 -13.5 -56t-30 -33t-37 -25t-30.5 -31q0 -71 74.5 -121.5t179.5 -63.5v543q-78 10 -137.5 30t-112.5 56.5t-81.5 98t-28.5 145.5q0 138 93 241.5t267 131.5v200h29v-196q54 6 88 6q59 0 84 -4v194h29 v-196q150 -20 231.5 -89t81.5 -161q0 -73 -32 -118.5t-85 -45.5q-43 0 -74.5 27t-31.5 77q0 30 13 55t30 39.5t34 35.5t23 42q-10 35 -62 68.5t-128 46.5v-506q46 -8 79.5 -16t73 -21.5t67 -31t55 -43.5t44 -59t27 -78.5t10.5 -100.5q0 -58 -19.5 -115.5t-59.5 -112.5 t-111.5 -97.5t-165.5 -61.5v-289h-29v285q-70 -8 -117 -8q-43 0 -55 2v-279h-29v281q-172 19 -279.5 98t-107.5 193zM334 1001q0 -103 49.5 -161t138.5 -74v467q-86 -22 -137 -89t-51 -143zM551 10q6 0 27 -1t28 -1q44 0 117 10v514q-83 15 -172 21v-543zM551 760l172 -21 v504q-20 4 -74 4q-44 0 -98 -8v-479zM752 27q65 18 109.5 63t62.5 94.5t18 100.5q0 99 -49.5 162.5t-140.5 78.5v-499z" />
<glyph unicode="%" horiz-adv-x="1734" d="M127 936q0 95 48.5 173.5t122 119.5t151.5 41q65 0 123.5 -19t106.5 -57.5t76.5 -104.5t28.5 -151q0 -132 -102 -226t-233 -94q-86 0 -158 34.5t-118 108.5t-46 175zM279 944q0 -87 17 -154t58 -111t103 -44q75 0 124.5 84.5t49.5 214.5q0 145 -45.5 232t-132.5 87 q-59 0 -99.5 -44t-57.5 -111.5t-17 -153.5zM410 -178l876 1585l37 -18l-881 -1586zM950 289q0 140 101 237t221 97q66 0 124 -19t106.5 -57t77 -104t28.5 -152q0 -133 -102.5 -226.5t-233.5 -93.5q-134 0 -228 84.5t-94 233.5zM1102 297q0 -134 44.5 -222.5t135.5 -88.5 q71 0 121.5 88t50.5 213q0 141 -45.5 230t-130.5 89q-60 0 -101 -45.5t-58 -113t-17 -150.5z" />
<glyph unicode="&#x26;" horiz-adv-x="1521" d="M74 305q0 72 20 128t69.5 107t109 93t161.5 102q-86 127 -125 215t-39 162q0 136 105 225.5t248 89.5q127 0 192.5 -80t65.5 -194q0 -91 -64 -178t-188 -162q139 -204 358 -477q63 90 109.5 222.5t46.5 207.5q0 79 -195 104v13h588v-13q-55 -6 -69.5 -7.5t-56 -8.5 t-59.5 -15t-44 -24t-45 -37q-23 -26 -62 -109t-91.5 -183.5t-107.5 -166.5q153 -194 213 -231q52 -31 127 -51t140 -23v-14h-480l-143 176q-43 -44 -80.5 -76t-88 -65t-107.5 -50.5t-117 -17.5q-59 0 -114.5 12t-106 39t-88.5 66t-60 95.5t-22 125.5zM285 391 q0 -133 73 -228t195 -95q80 0 160 33t129 92q-37 49 -126.5 165.5t-158.5 209t-108 151.5q-164 -103 -164 -328zM467 1171q0 -140 149 -340q170 104 170 328q0 109 -39 177.5t-120 68.5q-160 0 -160 -234z" />
<glyph unicode="'" horiz-adv-x="401" d="M88 1397q0 48 30 80t83 32t82.5 -32t29.5 -80q0 -21 -18 -84.5t-44.5 -162t-41.5 -183.5h-21q-17 111 -58.5 258.5t-41.5 171.5z" />
<glyph unicode="(" horiz-adv-x="686" d="M94 604q0 138 29 261t73.5 215t113 179t133.5 147.5t149 125.5l47 -31q-109 -83 -187.5 -163.5t-148.5 -188.5t-106.5 -245t-36.5 -300q0 -134 27 -253.5t70.5 -210t109 -174t130.5 -143t146 -118.5l-49 -33q-82 62 -144.5 119t-133 144t-116 179.5t-76 219.5t-30.5 270z " />
<glyph unicode=")" horiz-adv-x="686" d="M43 -295q81 59 146 118.5t130.5 143t109 174t70.5 210t27 253.5q0 163 -36.5 300t-106.5 245t-148.5 188.5t-187.5 163.5l47 31q84 -65 149 -125.5t133.5 -147.5t113 -179t73.5 -215t29 -261q0 -143 -30.5 -270t-76 -219.5t-116 -179.5t-133 -144t-144.5 -119z" />
<glyph unicode="*" horiz-adv-x="782" d="M118 1240q-6 20 7 42q32 40 76 6q18 -12 81 -72t103 -86q-4 48 -23.5 140.5t-19.5 109.5q0 50 51 50t51 -50q0 -17 -20 -110.5t-25 -139.5q40 29 104 88t83 72q45 30 69 -10q26 -43 -18 -70q-22 -14 -106 -42t-130 -48q44 -19 124 -45.5t106 -40.5q25 -12 31.5 -31.5 t-7.5 -41.5q-27 -42 -71 -11q-15 11 -79.5 71t-105.5 89q5 -45 25 -139.5t20 -110.5q0 -21 -13.5 -35t-37.5 -14q-51 0 -51 49q0 18 19.5 111t23.5 139q-41 -27 -106.5 -87t-77.5 -69q-45 -33 -72 7q-15 26 -7 43.5t32 29.5q23 12 101 38t128 48q-49 22 -130.5 48.5 t-105.5 39.5q-23 12 -29 32z" />
<glyph unicode="+" horiz-adv-x="1144" d="M78 496v71h459v459h71v-459h457v-71h-457v-457h-71v457h-459z" />
<glyph unicode="," horiz-adv-x="512" d="M104 133q0 46 35 83.5t92 37.5q87 0 129.5 -58t42.5 -159q0 -66 -30 -129.5t-78 -112t-91.5 -81t-86.5 -56.5l-11 20q89 53 148 139t68 187h-76q-73 0 -107.5 37.5t-34.5 91.5z" />
<glyph unicode="-" horiz-adv-x="763" d="M61 449v141h641v-141h-641z" />
<glyph unicode="." horiz-adv-x="512" d="M121 117q0 57 40 97t97 40t97 -40t40 -97t-40 -96t-97 -39t-97 39t-40 96z" />
<glyph unicode="/" horiz-adv-x="825" d="M63 -410l642 1950l55 -16l-641 -1950z" />
<glyph unicode="0" horiz-adv-x="1257" d="M102 592q0 153 44.5 282.5t119.5 215t171.5 133t201.5 47.5q122 0 221 -49.5t163 -135t98 -197.5t34 -239q0 -152 -44 -281.5t-118.5 -215t-171.5 -133.5t-203 -48q-122 0 -221.5 50t-163 136t-97.5 197.5t-34 237.5zM324 618q0 -133 16 -242.5t50 -198t93.5 -138 t141.5 -49.5q93 0 163.5 81.5t108 224.5t37.5 327q0 102 -9.5 191.5t-31.5 171t-56 139.5t-86 92t-118 34q-142 0 -225.5 -175.5t-83.5 -457.5z" />
<glyph unicode="1" horiz-adv-x="874" d="M117 1122v17q113 15 237 41q153 35 228 82h16q-18 -103 -18 -324v-799q0 -72 59 -98q21 -9 71 -17t83 -10v-14h-633v14q83 4 155 25q68 19 68 90v1010l-131 -9z" />
<glyph unicode="2" horiz-adv-x="1140" d="M109 0v51q174 132 280 226.5t221 214.5q132 137 183 253t51 252q0 122 -54 187t-155 65q-66 0 -123.5 -27.5t-96.5 -71.5t-67.5 -99t-41.5 -109.5t-13 -103.5q0 -158 113 -158q31 0 59.5 9t46 19t39 31.5t28.5 31t25 32.5l12 -10q-50 -81 -124 -129t-168 -48 q-78 0 -135.5 51t-57.5 150q0 71 40 150t108.5 147t173 112t221.5 44q168 0 268 -85t100 -235q0 -106 -39.5 -196t-129.5 -178.5t-210 -170.5t-307 -188l-59 -51h551q122 0 213 190l18 -6l-121 -350h-849z" />
<glyph unicode="3" horiz-adv-x="1157" d="M59 227q0 78 46.5 123t105.5 45q46 0 75 -25.5t29 -74.5q0 -29 -17.5 -51t-38.5 -34.5t-38.5 -32t-17.5 -44.5q0 -70 63 -119t176 -49q66 0 134 38t121.5 98.5t87.5 143.5t34 167q0 239 -153 239q-36 0 -82 -24.5t-74 -47.5t-72 -63l-28 33q26 18 79 55t76.5 54t65 49.5 t61 53t46.5 53t39 61.5t21 66t9 77q0 103 -45 167t-146 64q-63 0 -126.5 -35.5t-108.5 -105.5t-45 -154q0 -123 100 -123q34 0 73.5 21t65.5 45l9 -10q-39 -44 -106.5 -88.5t-110.5 -44.5q-91 0 -140 44t-49 111q0 92 68.5 176t183.5 134.5t242 50.5q93 0 164 -29.5t108 -74 t54.5 -88t17.5 -81.5q0 -42 -18.5 -84.5t-58 -85t-112 -77.5t-168.5 -52l-36 -30q48 8 108 8q42 0 81.5 -7.5t80 -27.5t71 -50.5t49.5 -80.5t19 -113q0 -138 -78.5 -241.5t-211.5 -156t-300 -52.5q-95 0 -180 30t-144 96t-59 154z" />
<glyph unicode="4" horiz-adv-x="1165" d="M49 432v17l696 839h35v-813h56q113 0 147 27q26 22 41.5 67t17.5 88h15v-417h-15q-2 50 -17.5 98.5t-43.5 71.5q-30 22 -141 22h-60v-295q0 -74 56 -98q48 -20 137 -25v-14h-580v14q109 6 139 17q58 18 58 94v307h-541zM117 475h473v567z" />
<glyph unicode="5" horiz-adv-x="1069" d="M72 215q0 70 41.5 100.5t87.5 30.5q42 0 67 -26.5t25 -67.5q0 -29 -23.5 -72.5t-23.5 -79.5q9 -48 57 -80t146 -32q77 0 135 43t90 115.5t47.5 154.5t15.5 172q0 138 -65 213.5t-172 75.5q-83 0 -167.5 -49.5t-123.5 -139.5l-27 7l156 684h20q26 -29 107.5 -54.5 t191.5 -25.5t183.5 21t140.5 73l8 -8q-35 -69 -95.5 -121.5t-121 -80.5t-128.5 -45t-110 -21.5t-73 -4.5q-128 0 -152 4l-82 -339q65 58 135.5 91t174.5 33q82 0 153.5 -23t130.5 -69t93 -124.5t34 -180.5q0 -120 -72.5 -217.5t-185.5 -149t-239 -51.5q-172 0 -275.5 70.5 t-103.5 173.5z" />
<glyph unicode="6" horiz-adv-x="1159" d="M119 555q0 179 61 344t159 281t224 185t254 69q74 0 129 -21.5t83 -54.5t41 -66t13 -63q0 -50 -27.5 -82.5t-76.5 -32.5q-27 0 -45.5 10.5t-29.5 32t-17.5 42.5t-15.5 54t-17 54q-21 55 -47.5 74.5t-73.5 19.5q-135 0 -250 -204t-155 -515l12 -4q116 190 338 190 q68 0 133.5 -30.5t117 -84t83.5 -135t32 -174.5q0 -62 -14 -124t-50 -126.5t-89.5 -112.5t-139.5 -79t-194 -31q-90 0 -169.5 39.5t-139.5 112t-94.5 184.5t-34.5 248zM319 403q0 -188 66 -300.5t178 -112.5q64 0 112.5 32t76 80t45 112.5t23 119.5t5.5 112q0 175 -58 277 t-181 102q-107 0 -187 -111t-80 -311z" />
<glyph unicode="7" horiz-adv-x="1036" d="M82 807l123 526h16l17 -114h823v-19q-125 -180 -196 -310.5t-144 -320.5q-71 -184 -106 -318.5t-46 -320.5q-5 -77 -38 -126.5t-97 -49.5q-53 0 -78.5 32.5t-25.5 111.5q0 69 74.5 239t173.5 342q76 133 112.5 195t99 160t136.5 202h-602q-48 0 -89 -24t-67 -62.5 t-42 -75.5t-24 -73z" />
<glyph unicode="8" horiz-adv-x="1101" d="M102 279q0 58 27.5 112t73 94.5t94 69.5t100.5 49q-136 61 -194 129.5t-58 184.5q0 102 62.5 187t158.5 131t199 46q178 0 280.5 -82t102.5 -219q0 -72 -62 -150.5t-196 -136.5q36 -14 59 -23.5t59 -28t59.5 -35t50.5 -42.5t43 -53.5t27 -65t11 -79.5q0 -118 -73.5 -211 t-184 -140t-231.5 -47q-179 0 -293.5 89.5t-114.5 220.5zM252 276q0 -54 14.5 -102t45 -90t86.5 -67t130 -25q124 0 208.5 83.5t84.5 207.5q0 88 -60 146.5t-165 102.5q-100 42 -172 62q-76 -40 -124 -128t-48 -190zM315 1010q0 -150 156 -234q62 -36 193 -69 q79 32 116 113.5t37 187.5q0 107 -64.5 180.5t-185.5 73.5q-119 0 -185.5 -76.5t-66.5 -175.5z" />
<glyph unicode="9" horiz-adv-x="1159" d="M51 0q0 119 111 119q34 0 56 -24t29.5 -53t16 -69t15.5 -57q23 -56 53.5 -76t77.5 -20q85 0 160.5 63.5t128 168.5t87.5 234t48 267l-15 2q-132 -182 -332 -182q-71 0 -137 28.5t-117.5 80.5t-82.5 134t-31 181q0 85 29.5 167.5t84.5 151.5t145 111.5t200 42.5 q69 0 132 -17.5t124 -61.5t105.5 -111t71.5 -173t27 -241q0 -170 -49 -326.5t-138 -279t-225.5 -196t-299.5 -73.5q-68 0 -122.5 20t-86.5 51.5t-49 67t-17 70.5zM334 836q0 -408 244 -408q47 0 90.5 19.5t84 62t65.5 121.5t26 186q0 198 -75.5 315t-190.5 117 q-60 0 -105.5 -28t-71 -69.5t-41.5 -100t-21 -109t-5 -106.5z" />
<glyph unicode=":" horiz-adv-x="571" d="M152 117q0 56 39 95.5t94 39.5t95 -40t40 -95q0 -56 -39.5 -94.5t-95.5 -38.5t-94.5 38t-38.5 95zM152 795q0 57 38.5 96t94.5 39t95.5 -39t39.5 -96q0 -55 -39.5 -94t-95.5 -39q-55 0 -94 39t-39 94z" />
<glyph unicode=";" horiz-adv-x="571" d="M143 133q0 45 35 82t90 37q85 0 126.5 -56.5t41.5 -154.5q0 -70 -31 -136t-79.5 -114t-91.5 -80t-84 -53l-7 12q88 51 142.5 141t60.5 195h-65q-72 0 -105 36.5t-33 90.5zM152 795q0 57 38.5 96t94.5 39t95.5 -39t39.5 -96q0 -55 -39.5 -94t-95.5 -39q-55 0 -94 39 t-39 94z" />
<glyph unicode="&#x3c;" horiz-adv-x="1144" d="M111 506v53l905 436v-73l-813 -390l813 -389v-73z" />
<glyph unicode="=" horiz-adv-x="1144" d="M119 322v69h905v-69h-905zM119 674v69h905v-69h-905z" />
<glyph unicode="&#x3e;" horiz-adv-x="1144" d="M127 70v73l813 389l-813 390v73l905 -436v-53z" />
<glyph unicode="?" horiz-adv-x="987" d="M109 1223q0 82 94.5 145.5t247.5 63.5q209 0 321.5 -114t112.5 -296q0 -175 -133 -295t-355 -139l-12 -219h-20v381q81 12 137.5 31t101.5 53.5t66.5 90t21.5 134.5q0 181 -67.5 265.5t-178.5 84.5q-42 0 -84 -16t-61 -39q1 -10 14 -60t13 -82q0 -51 -33 -79.5t-80 -28.5 q-52 0 -79 33.5t-27 85.5zM242 111q0 57 40 97t97 40t97 -40t40 -97t-40 -96.5t-97 -39.5t-97 39.5t-40 96.5z" />
<glyph unicode="@" horiz-adv-x="2039" d="M182 367q0 194 77.5 373.5t209 311.5t315.5 211.5t387 79.5q156 0 284.5 -52.5t212 -143t128.5 -209.5t45 -254q0 -164 -71 -307t-185.5 -226t-241.5 -83q-83 0 -136.5 45.5t-53.5 130.5l-6 2q-42 -73 -108.5 -123.5t-133.5 -50.5q-27 0 -54 7t-56.5 26t-51.5 48.5 t-36.5 78.5t-14.5 112q0 52 19 120t58.5 139.5t92 131.5t127.5 98.5t156 38.5q59 0 103.5 -34t51.5 -95h7l45 117h125l-191 -545q-22 -61 -22 -114q0 -113 94 -113q77 0 156 44t144 120t106.5 193t41.5 251q0 129 -45.5 240.5t-126.5 192.5t-201 127.5t-262 46.5 q-116 0 -231.5 -39.5t-219.5 -119t-184 -188.5t-127 -259t-47 -320q0 -145 36.5 -269t101.5 -214t153 -153.5t191.5 -94.5t216.5 -31q310 0 537.5 162t332.5 467l17 -6q-38 -128 -105.5 -237.5t-155 -190t-192 -137t-219.5 -85t-234 -28.5q-129 0 -253 32t-234 99 t-193 161.5t-131.5 227t-48.5 287.5zM823 289q0 -178 103 -178q76 0 131.5 51.5t105.5 146.5l131 389q-23 150 -155 150q-81 0 -156.5 -97t-117.5 -226t-42 -236z" />
<glyph unicode="A" horiz-adv-x="1392" d="M-49 0v14q71 4 129 35q62 37 117 164q97 234 485 1208h37q124 -313 314.5 -778t201.5 -491q30 -77 84 -109q46 -25 125 -29v-14h-645v14q75 4 142.5 21t74.5 49q5 22 -8 57l-146 375h-508q-58 -140 -102 -289q-29 -93 -29 -123q0 -76 250 -90v-14h-522zM365 545h485 l-244 616z" />
<glyph unicode="B" horiz-adv-x="1366" d="M88 0v14q29 2 80.5 11t71.5 16q63 23 63 98v1108q0 81 -63 107q-61 26 -144 30v15h701q49 0 100 -8t106.5 -28.5t97.5 -51t69.5 -80.5t27.5 -113q0 -67 -19.5 -121t-52 -91t-82.5 -65.5t-102 -46t-119 -32.5v-19q55 -3 112 -16t119 -42t109.5 -69t78 -104t30.5 -141 q0 -75 -30.5 -138.5t-79 -105.5t-111.5 -71.5t-126 -42.5t-124 -13h-713zM518 150q11 -70 52 -97.5t143 -27.5q70 0 125 24.5t88.5 63.5t55.5 91.5t30 103t8 104.5q0 132 -87.5 224.5t-238.5 92.5q-102 0 -176 -4v-575zM518 754h129q81 0 142 26t95.5 72.5t51 103 t16.5 123.5q0 73 -23 131t-61.5 93t-84.5 53t-95 18q-121 0 -170 -2v-618z" />
<glyph unicode="C" horiz-adv-x="1337" d="M76 682q0 156 55 294t150.5 236.5t229.5 155.5t286 57q121 0 213.5 -33.5t144.5 -82.5l78 110h18l9 -506h-19q-23 75 -54.5 142t-76.5 131t-97.5 109.5t-121.5 73.5t-146 28q-195 0 -309 -179.5t-114 -519.5q0 -186 58 -333.5t170.5 -233.5t262.5 -86q91 0 168 25t135 70 t100.5 101t73.5 126l23 -13q-34 -77 -80 -141t-113 -121.5t-160.5 -90t-205.5 -32.5q-150 0 -276 50.5t-214.5 142.5t-138 225.5t-49.5 294.5z" />
<glyph unicode="D" horiz-adv-x="1601" d="M88 0v14q31 0 81.5 7t70.5 14q63 23 63 100v1112q0 85 -63 111q-51 21 -144 26v15h660q64 0 131 -9.5t143 -33t145 -59.5t132.5 -93t110 -128t74.5 -170.5t28 -215.5q0 -139 -46 -254.5t-123.5 -195t-181.5 -134.5t-218.5 -80.5t-235.5 -25.5h-627zM520 182 q10 -79 60 -118t163 -39q132 0 233.5 49t164.5 139t95 210.5t32 268.5q0 196 -70 351t-200.5 244t-299.5 89q-88 0 -178 -4v-1190z" />
<glyph unicode="E" horiz-adv-x="1363" d="M78 0v14q34 2 87.5 9.5t74.5 15.5q63 23 63 100v1108q0 82 -63 107q-60 24 -162 30v15h1128v-318h-18q-20 77 -94.5 178t-135.5 109q-65 8 -206 8h-232v-639h205q53 0 92 13.5t48.5 22t31.5 30.5t45.5 90.5t28.5 112.5h18v-572h-18q-3 44 -29 118.5t-45 94.5t-32.5 31 t-51 23t-88.5 12h-205v-502q0 -44 3 -72.5t14.5 -50.5t26.5 -33.5t45.5 -18.5t64.5 -9t90 -2h29q90 0 137 1.5t104 12.5t78 33q42 44 105.5 156.5t80.5 164.5h19l-27 -393h-1212z" />
<glyph unicode="F" horiz-adv-x="1253" d="M78 0v14q123 7 162 21q63 23 63 100v1112q0 82 -63 107q-60 24 -162 30v15h1143v-332h-19q-26 79 -106 186t-140 115q-65 8 -200 8h-236v-643h207q113 0 182 64q22 20 45 82.5t29 119.5h21v-575h-21q-3 46 -28 122t-46 97q-66 66 -182 66h-207v-572q0 -73 64 -100 q17 -7 69.5 -14t85.5 -9v-14h-661z" />
<glyph unicode="G" horiz-adv-x="1527" d="M76 668q0 209 100.5 382.5t278 274t393.5 100.5q115 0 223 -37.5t160 -84.5l72 116h18l10 -491h-16q-29 88 -75 167.5t-111.5 148.5t-156 110t-192.5 41q-215 0 -334.5 -189t-119.5 -524q0 -143 30 -265.5t86.5 -215t144.5 -145t197 -52.5q88 0 155 21.5t107 59 t61.5 81.5t27.5 96v187q0 94 -68 120q-32 12 -98.5 21.5t-104.5 11.5v16h678v-16l-31.5 -4.5t-41 -6t-37.5 -7.5t-35 -11q-62 -29 -62 -106v-506l-14 -6l-113 125q-291 -111 -503 -111q-91 0 -180.5 28.5t-170.5 87t-143 140t-98.5 196.5t-36.5 247z" />
<glyph unicode="H" horiz-adv-x="1746" d="M96 0v14q102 6 144 21q63 23 63 100v1112q0 81 -63 107q-25 10 -70 19t-74 11v15h635v-15q-80 -4 -147 -26q-64 -20 -64 -101v-516h707v506q0 80 -64 107q-25 10 -71.5 19t-75.5 11v15h635v-15q-77 -4 -144 -26q-63 -20 -63 -101v-1112q0 -75 63 -106q40 -19 144 -25v-14 h-635v14q106 6 147 21q64 24 64 100v578h-707v-568q0 -79 64 -106q18 -7 67.5 -15t79.5 -10v-14h-635z" />
<glyph unicode="I" horiz-adv-x="831" d="M94 0v14q109 6 150 21q63 23 63 100v1112q0 81 -63 107q-25 10 -72.5 19t-77.5 11v15h643v-15q-83 -4 -149 -26q-64 -20 -64 -101v-1112q0 -79 64 -106q18 -7 68.5 -15t80.5 -10v-14h-643z" />
<glyph unicode="J" horiz-adv-x="1011" d="M0 158q0 61 39.5 104t101.5 43q61 0 97 -37t36 -94q0 -111 -124 -156v-10q14 -7 47 -12.5t51 -5.5q57 0 100.5 12t72.5 28.5t49 51.5t30 63t15 82t6 89t1 102v835q0 71 -63 101q-55 25 -166 30v15h665v-15q-90 -5 -155 -26q-64 -20 -64 -101v-876q0 -46 -18 -100 t-56 -110t-90 -102t-128.5 -75t-163.5 -29q-77 0 -135 18.5t-88.5 48.5t-45 61.5t-14.5 64.5z" />
<glyph unicode="K" horiz-adv-x="1511" d="M96 0v14q102 6 144 21q63 23 63 100v1112q0 79 -63 105q-26 10 -71 20t-73 12v15h635v-15q-80 -4 -147 -26q-64 -20 -64 -101v-540h23q228 184 397.5 355t169.5 239q0 21 -23 36.5t-60.5 22.5t-61 10t-47.5 4v15h540v-15q-2 0 -15.5 -0.5t-22.5 -1t-27 -2.5t-32 -5 t-33.5 -8t-36.5 -12.5t-36 -17t-37 -23.5t-34 -30q-11 -12 -61 -63.5t-62.5 -64t-54 -55t-58.5 -59t-53 -52t-61 -57.5t-58.5 -52t-66.5 -58q249 -258 553 -643q75 -96 170 -137q59 -24 147 -29v-14h-750v14q7 0 21 1q42 2 65 4t55.5 9.5t48 24t15.5 41.5q0 52 -176 262.5 t-305 339.5h-33v-551q0 -73 64 -100q20 -8 70 -19t77 -12v-14h-635z" />
<glyph unicode="L" horiz-adv-x="1288" d="M90 0v14q32 2 80.5 9.5t69.5 15.5q63 23 63 100v1112q0 75 -63 103q-58 25 -148 30v15h641v-15q-105 -6 -149 -20q-64 -20 -64 -102v-1051q0 -44 3 -72.5t14.5 -50.5t26.5 -33.5t45.5 -18.5t64.5 -9t90 -2h29q85 0 127.5 1.5t92 12.5t70.5 33q42 44 106 158.5t81 166.5 h18l-26 -397h-1172z" />
<glyph unicode="M" horiz-adv-x="1964" d="M37 0v14q4 0 27.5 2.5t41 4.5t42 6.5t45 12t34.5 17.5q37 26 52.5 87.5t15.5 179.5v835q0 122 -64 174q-58 46 -184 51v15h449l508 -1073l378 899q41 95 48 174h438v-15q-77 -4 -144 -26q-63 -20 -63 -101v-1112q0 -75 63 -106q40 -19 144 -25v-14h-645v14q117 6 157 23 q66 30 66 108v1151l-539 -1273h-22q-40 129 -109 284l-452 967v-950q0 -113 17 -174.5t52 -90.5q23 -19 93 -30.5t118 -14.5v-14h-567z" />
<glyph unicode="N" horiz-adv-x="1589" d="M10 1384v15h422l883 -1084v713q0 114 -18 196t-52 109q-56 44 -209 51v15h563v-15q-39 -2 -98.5 -15t-89.5 -34q-68 -47 -68 -307v-1042h-34l-985 1212v-838q0 -128 17 -193t52 -91q29 -22 102 -41t109 -21v-14h-567v14q32 2 101 21t89 35q37 29 52.5 94t15.5 186v803 q0 45 -23 98.5t-53 77.5q-33 26 -94 39.5t-115 15.5z" />
<glyph unicode="O" d="M78 684q0 337 198 535q210 213 519 213q301 0 520 -213q91 -91 142.5 -225.5t51.5 -284.5q0 -345 -213 -545q-206 -197 -510 -197q-284 0 -489 193q-219 206 -219 524zM326 694q0 -147 29 -272.5t85.5 -222.5t147.5 -152t207 -55q154 0 261 95t156.5 252.5t49.5 362.5 q0 110 -15.5 209.5t-51 191t-88.5 158.5t-133 106.5t-179 39.5q-218 0 -343.5 -190t-125.5 -523z" />
<glyph unicode="P" horiz-adv-x="1271" d="M84 1384v15h686q188 0 313 -89.5t125 -242.5q0 -101 -45 -183.5t-120 -134.5t-168.5 -80t-194.5 -28h-160v-502q0 -78 64 -102q20 -7 70.5 -14t90.5 -9v-14h-653v14q31 2 80 9t68 14q63 23 63 102v1112q0 85 -63 105q-75 24 -156 28zM520 666h101q84 0 147.5 28t97.5 67 t55 91t27 90t6 74q0 50 -8 96.5t-29 95t-53 84t-85 58t-120 22.5h-139v-706z" />
<glyph unicode="Q" d="M78 684q0 337 198 535q210 213 519 213q301 0 520 -213q91 -91 142.5 -225.5t51.5 -284.5q0 -256 -143 -435q-82 -105 -211 -180q16 -74 52.5 -128.5t83.5 -83.5t94.5 -42.5t95.5 -13.5q79 0 150.5 46t109.5 105l14 -10q-24 -37 -62 -78t-93 -86.5t-127 -74.5t-144 -29 q-61 0 -116.5 15t-108.5 48t-94.5 92.5t-63.5 141.5q-83 -25 -160 -25q-288 0 -489 189q-219 206 -219 524zM326 694q0 -342 129 -514q51 131 142 192.5t194 61.5q114 0 210 -79.5t134 -209.5q127 155 127 557q0 108 -15.5 207t-51.5 191t-88.5 159.5t-132.5 107.5t-179 40 q-218 0 -343.5 -192t-125.5 -521zM471 160q141 -160 324 -160q57 0 145 18q-22 147 -50.5 226.5t-69 111t-105.5 31.5q-37 0 -79 -20.5t-89.5 -74.5t-75.5 -132z" />
<glyph unicode="R" horiz-adv-x="1509" d="M92 0v14q31 2 80 9t68 14q63 23 63 102v1114q0 83 -63 103q-74 24 -148 28v15h715q81 0 156.5 -18.5t139.5 -55t103 -99.5t39 -143q0 -64 -26 -119t-66 -92.5t-95.5 -67.5t-106 -47.5t-105.5 -29.5v-20q54 -6 101 -18.5t95 -36t82.5 -64t49.5 -94.5q16 -59 38 -169.5 t35 -158.5q9 -32 22 -53t29 -29.5t27.5 -11t26.5 -2.5q58 0 94.5 55.5t36.5 155.5v30h26v-30q0 -145 -68 -224.5t-198 -79.5q-120 0 -183 84.5t-85 262.5q-5 43 -10 72.5t-15.5 72t-23.5 71.5t-35 61t-50 51.5t-69 32.5t-90 13h-162v-559q0 -78 64 -102q47 -17 149 -23v-14 h-641zM520 727h127q71 0 130.5 17t109.5 52.5t78 98.5t28 147q0 165 -83 247.5t-210 82.5h-180v-645z" />
<glyph unicode="S" horiz-adv-x="1120" d="M90 459h19q32 -83 63 -146t74 -124.5t90.5 -101t111.5 -63.5t138 -24q143 0 213.5 83.5t70.5 209.5q0 92 -54.5 161t-149.5 107q-214 86 -293 121q-121 54 -181.5 142.5t-60.5 222.5q0 162 117.5 270t292.5 108q102 0 194.5 -31.5t151.5 -76.5l71 102h17l10 -465h-18 q-22 73 -47 132.5t-63 120t-82.5 101t-107 66t-135.5 25.5q-93 0 -166 -65.5t-73 -178.5q0 -89 46.5 -149t137.5 -109q57 -31 151.5 -67.5t127.5 -51.5q74 -34 120.5 -64t88 -74t60.5 -103t19 -138q0 -186 -131.5 -306t-330.5 -120q-123 0 -228 35t-159 78l-72 -106h-19z " />
<glyph unicode="T" horiz-adv-x="1314" d="M16 1042v357h1282v-357h-18q-12 48 -49 120.5t-89 135t-93 68.5q-65 8 -166 8h-117v-1229q0 -75 63 -102q18 -7 78.5 -17t89.5 -12v-14h-680v14q32 2 90.5 10t77.5 15q64 24 64 102v1233h-117q-101 0 -166 -8q-41 -6 -93 -68.5t-89 -135t-49 -120.5h-19z" />
<glyph unicode="U" horiz-adv-x="1619" d="M70 1384v15h637v-15q-81 -4 -148 -26q-63 -20 -63 -101v-862q0 -50 7.5 -94t32 -93.5t63.5 -84.5t108 -58.5t161 -23.5q117 0 207 33.5t141.5 89t77 119t25.5 131.5v637q0 229 -70 274q-83 54 -209 59v15h564v-15q-35 -2 -97.5 -16.5t-91.5 -32.5q-67 -43 -67 -272v-657 q0 -96 -36 -173.5t-91.5 -126t-128 -81t-140.5 -45.5t-133 -13q-130 0 -235 32.5t-171.5 88.5t-101.5 128t-35 153v886q0 69 -63 103q-41 20 -143 26z" />
<glyph unicode="V" horiz-adv-x="1384" d="M-43 1384v15h627v-15q-209 -11 -209 -75q0 -25 10 -52l391 -1009l354 842q50 119 50 190q0 49 -62 72.5t-188 31.5v15h510v-15q-58 -3 -119 -36q-60 -35 -111 -154l-512 -1210h-34l-498 1263q-26 71 -84 105q-52 28 -125 32z" />
<glyph unicode="W" horiz-adv-x="1992" d="M-33 1384v15h625v-15q-30 -2 -64 -7t-69 -13.5t-57.5 -23t-22.5 -31.5q0 -28 8 -52l305 -962l295 803q-50 207 -113 248q-23 14 -69 25t-78 13v15h616v-15q-72 -4 -139 -23t-67 -52q0 -24 8 -52q12 -37 55.5 -170t122 -370.5t137.5 -417.5q196 544 269 791q40 137 40 184 q0 26 -23.5 46.5t-61 33.5t-77 20.5t-77.5 9.5v15h510v-15q-52 -3 -123 -41q-65 -38 -107 -149q-116 -308 -430 -1210h-47q-90 300 -336 1056l-387 -1056h-47q-90 295 -232.5 741.5t-164.5 521.5q-19 67 -76 101q-52 32 -123 36z" />
<glyph unicode="X" horiz-adv-x="1560" d="M-8 0v14q81 4 141 29q86 38 168 137q171 204 385 473q-305 427 -412 566q-74 101 -143 137q-48 23 -135 28v15h747v-15q-126 -6 -170 -21q-59 -20 -59 -63q0 -47 156 -270q35 -51 159 -221q147 173 240 303q105 147 105 182q0 19 -10 33.5t-29.5 23.5t-38.5 15.5 t-48.5 10t-47.5 5t-46 2.5v15h555v-15q-86 -5 -143 -28q-86 -38 -168 -137q-49 -58 -103 -125.5t-130 -165t-113 -144.5q399 -549 442 -604q81 -104 144 -141q35 -20 133 -25v-14h-748v14q29 1 47.5 2.5t49.5 5t51.5 10t41.5 15.5t31.5 23.5t10.5 33.5q0 44 -140 240 q-38 54 -111 153.5t-95 129.5q-205 -250 -265 -330q-118 -152 -118 -193q0 -19 10 -33.5t29.5 -23.5t39 -15.5t48.5 -10t47.5 -5t46.5 -2.5v-14h-555z" />
<glyph unicode="Y" horiz-adv-x="1300" d="M-66 1384v15h660v-15q-75 -4 -141 -21.5t-66 -49.5q0 -20 100 -205q121 -222 258 -465q201 334 265 451q86 159 86 192q0 24 -23 43t-61.5 29.5t-76 16.5t-77.5 9v15h494v-15q-53 -4 -92 -28q-41 -24 -64 -44.5t-51 -60.5q-82 -118 -336 -567q-37 -67 -47 -109t-10 -120 v-310q0 -75 63 -102q18 -7 78.5 -17t89.5 -12v-14h-680v14q32 2 90.5 10t77.5 15q64 24 64 102v387q0 48 -54 154q-126 248 -291 528q-61 106 -122 142q-51 28 -134 32z" />
<glyph unicode="Z" horiz-adv-x="1282" d="M8 0v25l983 1349h-420q-114 0 -165 -10q-75 -16 -166.5 -131.5t-128.5 -210.5h-19l43 377h1104v-25l-983 -1349h465q245 0 301 53q61 57 128.5 162.5t96.5 179.5h19l-47 -420h-1211z" />
<glyph unicode="[" horiz-adv-x="1124" d="M154 -326v1815l47 -16q161 -36 241 -52.5t184 -29.5t199 -13q67 0 108.5 8t57.5 24.5t19.5 29t3.5 35.5q0 41 -33 88l10 6q19 -13 36 -50t17 -73q0 -106 -66.5 -167.5t-199.5 -61.5q-63 0 -119.5 11.5t-114 37.5t-100 49.5t-114 66t-119.5 68.5v-1737q48 26 119.5 68.5 t114 66.5t100 50t114 37.5t119.5 11.5q133 0 199.5 -62t66.5 -168q0 -66 -59 -125l-10 7q14 14 26.5 40t12.5 50q0 12 -1 19t-6 20t-17.5 21.5t-32 17.5t-53.5 13.5t-79 4.5q-136 0 -263 -21t-361 -73z" />
<glyph unicode="\" horiz-adv-x="825" d="M63 1524l56 16l641 -1950l-55 -16z" />
<glyph unicode="]" horiz-adv-x="1124" d="M86 -283q0 106 66 168t198 62q63 0 120 -11.5t115 -37.5t100.5 -49.5t114.5 -66.5t120 -69v1737q-47 -26 -119.5 -69t-115 -66t-100.5 -49t-115 -37.5t-120 -11.5q-132 0 -198 61.5t-66 167.5q0 36 17 73t36 50l11 -6q-33 -47 -33 -88q0 -18 1.5 -28t11 -25t28 -23 t56 -14.5t91.5 -6.5q136 0 262 21t361 74l47 16v-1815l-47 17q-161 36 -241.5 52t-183.5 29t-198 13q-54 0 -91.5 -7.5t-56 -16.5t-28.5 -24.5t-11 -24.5t-1 -23q0 -24 12.5 -50t26.5 -40l-11 -7q-59 59 -59 125z" />
<glyph unicode="^" horiz-adv-x="909" d="M102 850q64 99 136.5 206t107.5 163q18 29 41.5 39t65.5 10t66 -10t44 -39q65 -91 244 -369l-10 -10l-342 274l-342 -274z" />
<glyph unicode="_" horiz-adv-x="1222" d="M-14 -223h1249v-72h-1249v72z" />
<glyph unicode="`" horiz-adv-x="1024" d="M326 1419q0 30 25 54t59 24q40 0 68.5 -19t56.5 -69q19 -33 77.5 -143t102.5 -185l-10 -8q-94 75 -190.5 147t-115.5 87q-42 33 -57.5 55t-15.5 57z" />
<glyph unicode="a" horiz-adv-x="1003" d="M76 193q0 49 11.5 88t29 64t46 46.5t53 33.5t60.5 26q38 14 167 56t178 68v146q0 18 -2 37t-12 52.5t-27 58.5t-52.5 44t-83.5 19q-86 0 -129 -55q0 -29 11.5 -84t11.5 -76q0 -34 -33 -61t-86 -27q-47 0 -69.5 30.5t-22.5 75.5q0 59 50 110t126 79t154 28q48 0 84 -2.5 t74.5 -10t65.5 -21t53 -36t41.5 -54.5t24.5 -77t9 -102q0 -104 -5 -278.5t-5 -194.5q0 -32 25.5 -68t70.5 -36q32 0 55.5 27.5t34.5 64.5t14 80h21q-9 -138 -63.5 -201t-153.5 -63q-71 0 -113 32.5t-67 104.5h-7q-57 -67 -135 -104.5t-168 -37.5q-106 0 -171.5 60t-65.5 158 zM274 223q0 -84 37 -130t103 -46q121 0 200 98l9 402q-82 -25 -131 -47q-105 -46 -161.5 -112t-56.5 -165z" />
<glyph unicode="b" horiz-adv-x="1128" d="M-23 1493v12l369 23l8 -8v-691l6 -2q45 48 117.5 86.5t159.5 38.5q186 0 306 -129t120 -364q0 -103 -39 -194.5t-103 -155.5t-148.5 -101t-174.5 -37t-176.5 32t-147.5 71l-98 -117l-16 4q8 109 8 379v1018q-4 47 -16 68t-39 40q-36 23 -136 27zM354 180q10 -30 26.5 -58 t43.5 -59.5t68 -51t90 -19.5q118 0 195 128.5t77 336.5q0 81 -16.5 155t-49 137.5t-90 101.5t-131.5 38q-130 0 -213 -96v-613z" />
<glyph unicode="c" horiz-adv-x="890" d="M66 467q0 95 32 182.5t89 154.5t144 107.5t189 40.5q151 0 234.5 -68.5t83.5 -168.5q0 -51 -32 -83t-83 -32q-40 0 -73.5 24t-33.5 78q0 49 23 95.5t23 60.5q-6 33 -46.5 53.5t-95.5 20.5q-108 0 -178 -113.5t-70 -333.5q0 -198 77 -319t210 -121q205 0 311 186l19 -12 q-60 -107 -161 -175.5t-218 -68.5q-215 0 -329.5 135.5t-114.5 356.5z" />
<glyph unicode="d" horiz-adv-x="1157" d="M66 475q0 102 39 192.5t103.5 152t149 97t174.5 35.5q23 0 46.5 -2t43 -5t39.5 -8t34 -9t30 -9.5t24 -8.5t19 -7.5t12 -5.5v461q-4 46 -15.5 65.5t-39.5 38.5q-17 11 -75 20t-103 11v12l411 23l9 -8v-1362q6 -69 53 -101q33 -21 121 -26v-13l-344 -22l-15 14v84l-6 2 q-44 -46 -116 -83.5t-158 -37.5q-185 0 -310.5 137.5t-125.5 362.5zM274 453q0 -81 16 -152.5t49 -132.5t93 -97t139 -36q69 0 117.5 23.5t91.5 70.5v629q-10 29 -27 56.5t-44 55t-68.5 44t-91.5 16.5q-127 0 -201 -131.5t-74 -345.5z" />
<glyph unicode="e" horiz-adv-x="933" d="M66 471q0 93 29.5 179t83 153.5t136 108t181.5 40.5q102 0 178 -31t119.5 -85.5t64.5 -120.5t21 -144v-18h-611v-35q0 -479 305 -479q78 0 135 24t95 63t80 107l16 -10q-56 -113 -156 -180.5t-225 -67.5q-113 0 -200.5 39t-142 108t-82 157.5t-27.5 191.5zM268 573l412 5 q0 354 -186 354q-97 0 -159 -99.5t-67 -259.5z" />
<glyph unicode="f" horiz-adv-x="651" d="M4 893v33h209v59q0 273 139 420q117 125 301 125q108 0 162.5 -53t54.5 -127q0 -39 -32 -73t-82 -34q-45 0 -80 29t-35 78q0 37 11.5 70t11.5 53q-10 32 -60 32q-98 0 -147 -102t-56 -334q0 -15 -1 -70t-1 -73h258v-33h-258v-762q0 -71 56 -92q53 -21 133 -25v-14h-520 v14q44 2 90 15q55 17 55 92v772h-209z" />
<glyph unicode="g" horiz-adv-x="1040" d="M37 -213q0 88 92.5 147.5t251.5 63.5v14q-236 55 -236 189q0 33 14.5 59.5t47.5 47.5t51 29.5t58 24.5q8 3 12 5v12q-110 44 -171 113.5t-61 158.5q0 137 105 219t262 82q62 0 125.5 -15t105 -30.5t49.5 -15.5q58 36 100 48.5t107 12.5q38 0 67.5 -29t29.5 -69 q0 -45 -23 -72.5t-63 -27.5q-50 0 -71 36q-18 32 -18 96v19q-80 0 -133 -39v-14q41 -45 62.5 -93t21.5 -118q0 -127 -106 -209t-240 -82h-139q-72 -35 -72 -88q0 -33 17.5 -53.5t57 -29.5t64 -11.5t77.5 -4.5q5 0 8 -0.5t7.5 -0.5h8.5q35 -1 127 -6.5t102 -5.5 q100 -5 181 -81.5t81 -197.5q0 -150 -131 -247t-383 -97q-446 0 -446 260zM197 -225q0 -35 15 -71t48.5 -73t100.5 -60.5t157 -23.5q149 0 240.5 74.5t91.5 194.5q0 47 -25.5 91.5t-89.5 65.5q-113 15 -323 15q-112 -22 -163.5 -71t-51.5 -142zM289 653q0 -76 16.5 -138 t56 -104t97.5 -42q85 0 129.5 80.5t44.5 197.5q0 73 -16 134.5t-57.5 106t-102.5 44.5q-47 0 -81 -24t-52.5 -65.5t-26.5 -88.5t-8 -101z" />
<glyph unicode="h" horiz-adv-x="1177" d="M0 1493v12l371 23l8 -8v-736h4q5 5 23.5 23t24.5 24t24.5 22.5t28 23l28.5 19.5t33 19t35 14.5t40.5 12.5t44 7t50.5 3q139 0 208.5 -86t69.5 -237v-500q0 -75 54 -98q34 -14 90 -17v-14h-484v14q53 3 97 15q55 17 55 92v532q0 101 -50 160t-120 59q-100 0 -166.5 -43.5 t-89.5 -91.5v-606q0 -74 55 -98q34 -15 96 -19v-14h-483v14q44 2 90 15q56 17 56 92v1237q-7 74 -56 108q-33 21 -137 27z" />
<glyph unicode="i" horiz-adv-x="585" d="M37 903v12l354 23l8 -8v-799q0 -74 56 -98q34 -15 96 -19v-14h-483v14q44 2 90 15q55 17 55 92v647q-7 76 -55 109q-33 21 -121 26zM164 1339q0 53 37 91t88 38q56 0 92.5 -35t36.5 -85q0 -55 -37 -94.5t-92 -39.5q-51 0 -88 37t-37 88z" />
<glyph unicode="j" horiz-adv-x="595" d="M-168 -326q0 37 31 70t78 33q45 0 77.5 -23.5t32.5 -70.5q0 -19 -11 -66.5t-11 -62.5q15 -5 45 -5q93 0 130.5 100t37.5 339v780q-7 75 -56 109q-30 19 -157 26v12l391 23l8 -8v-856q0 -286 -129 -420q-64 -67 -126 -97t-140 -30q-98 0 -149.5 40.5t-51.5 106.5z M188 1339q0 53 37 91t88 38q56 0 92.5 -35t36.5 -85q0 -55 -37 -94.5t-92 -39.5q-51 0 -88 37t-37 88z" />
<glyph unicode="k" horiz-adv-x="1093" d="M0 1493v12l371 23l8 -8v-1059q276 258 362 350q27 27 27 45q0 36 -164 55v15h412v-13q-76 -15 -138.5 -47.5t-134.5 -95.5q-55 -47 -174 -166q73 -34 131.5 -82.5t108 -123.5t76 -124t74.5 -149q11 -22 16 -33q11 -24 24.5 -37.5t38.5 -23.5q48 -19 80 -19v-12h-325 q-19 63 -54.5 140t-80.5 152t-99.5 125t-101.5 50q-43 0 -78 -31v-305q0 -74 55 -98q34 -15 96 -19v-14h-483v14q44 2 90 15q56 17 56 92v1237q-7 74 -56 108q-33 21 -137 27z" />
<glyph unicode="l" horiz-adv-x="571" d="M-2 1493v12l375 23l8 -8v-1389q0 -74 55 -98q35 -16 90 -19v-14h-477v14q44 2 90 15q56 17 56 92v1237q-7 74 -56 108q-33 21 -141 27z" />
<glyph unicode="m" horiz-adv-x="1789" d="M55 903v12l334 23l8 -8v-146h4l29 29t32 31t31 26.5t38 28t38.5 20t48 19t51.5 9.5t62 5q93 0 160.5 -47t103.5 -129h4q143 176 336 176q136 0 203.5 -89.5t67.5 -237.5v-498q0 -73 53 -96q34 -14 90 -17v-14h-475v14q42 2 88 15q55 17 55 92v528q0 103 -48.5 163 t-125.5 60q-91 0 -153.5 -41t-88.5 -86v-618q0 -71 54 -94q39 -16 90 -19v-14h-471v14q39 2 86 15q55 17 55 92v543q0 100 -48.5 154t-119.5 54q-96 0 -162.5 -45t-87.5 -90v-606q0 -74 56 -98q35 -16 92 -19v-14h-479v14q44 2 90 15q55 17 55 92v647q-7 76 -55 109 q-35 22 -101 26z" />
<glyph unicode="n" horiz-adv-x="1196" d="M55 903v12l334 23l8 -8v-146h4q5 5 23.5 23t24.5 24t24.5 22.5t28 23l28.5 19.5t33 19t35 14.5t40.5 12.5t44 7t50.5 3q139 0 209 -86t70 -237v-500q0 -75 53 -98q34 -14 90 -17v-14h-483v14q52 3 96 15q55 17 55 92v532q0 101 -50 160t-120 59q-100 0 -166.5 -43.5 t-89.5 -91.5v-606q0 -74 56 -98q34 -15 96 -19v-14h-483v14q44 2 90 15q55 17 55 92v647q-7 76 -55 109q-35 22 -101 26z" />
<glyph unicode="o" horiz-adv-x="1071" d="M63 459q0 219 132 356t346 137q211 0 339 -135.5t128 -343.5q0 -138 -55 -250.5t-166 -182t-261 -69.5q-124 0 -228.5 58t-169.5 171t-65 259zM270 475q0 -102 15.5 -187.5t46.5 -152.5t84 -105t123 -38q88 0 148 65.5t87 170.5t27 243q0 94 -13.5 172.5t-42.5 145.5 t-81.5 105t-124.5 38q-76 0 -131 -40t-84 -109t-41.5 -144.5t-12.5 -163.5z" />
<glyph unicode="p" horiz-adv-x="1159" d="M27 -449q54 3 112 19q54 17 54 96v1106q-6 69 -54 102q-39 25 -112 29v12l342 23l8 -10v-107l8 -2q47 51 119 92t158 41q181 0 303 -138t122 -359q0 -136 -65.5 -247.5t-171.5 -172t-227 -60.5q-150 0 -236 64h-8v-361q0 -74 57 -96q24 -9 69.5 -19.5t72.5 -11.5v-14 h-551v14zM379 156q22 -62 79 -112t148 -50q130 0 201.5 124.5t71.5 338.5q0 87 -16 162t-49.5 135t-90 94.5t-131.5 34.5q-130 0 -213 -97v-630z" />
<glyph unicode="q" horiz-adv-x="1128" d="M66 475q0 136 67.5 247t175 170.5t228.5 59.5q39 0 77.5 -6t64.5 -13t58 -20.5t44.5 -20t38 -21t26.5 -15.5l125 119l12 -2q-16 -328 -16 -359v-946q0 -72 55 -96q25 -11 121 -21v-14h-533v14q57 3 115 19q55 16 55 96v426l-6 2q-44 -46 -115 -82.5t-157 -36.5 q-90 0 -169.5 35.5t-138.5 99.5t-93.5 158.5t-34.5 206.5zM274 453q0 -81 16 -152.5t49 -132.5t93 -97t139 -36q69 0 117.5 23.5t91.5 70.5v629q-10 29 -27 56.5t-44 55t-68.5 44t-91.5 16.5q-127 0 -201 -131.5t-74 -345.5z" />
<glyph unicode="r" horiz-adv-x="808" d="M55 903v12l334 23l8 -8v-146h4q63 81 136 122.5t141 41.5q56 0 92.5 -36.5t36.5 -88.5q0 -58 -29 -93.5t-80 -35.5t-80.5 28t-29.5 79q0 27 22 82q-64 0 -126 -48t-87 -92v-618q0 -71 56 -92q35 -14 133 -19v-14h-520v14q44 2 90 15q55 17 55 92v647q-7 76 -55 109 q-35 22 -101 26z" />
<glyph unicode="s" horiz-adv-x="821" d="M66 307h16q13 -41 43.5 -92t74 -102.5t102 -86t116.5 -34.5q101 0 153 55t52 137q0 79 -52.5 122.5t-199.5 86.5q-279 83 -279 291q0 117 83.5 192.5t223.5 75.5q160 0 240 -55l35 57h18l15 -282h-17q-17 47 -43.5 90.5t-63 83t-84.5 63t-100 23.5q-86 0 -131 -52 t-45 -118q0 -25 5.5 -45t13.5 -35.5t26.5 -30t33.5 -24t47.5 -22t55.5 -20t68 -22.5q138 -45 208.5 -113t70.5 -186q0 -133 -98 -213t-246 -80q-88 0 -167 28.5t-110 59.5l-35 -69h-20z" />
<glyph unicode="t" horiz-adv-x="706" d="M-2 893v33h201v313h178v-313h280v-33h-278v-606q0 -97 35 -152t123 -55q63 0 100.5 52.5t48.5 121.5h21q-13 -116 -84 -195t-181 -79q-247 0 -247 282v631h-197z" />
<glyph unicode="u" horiz-adv-x="1161" d="M29 901v12l329 25l15 -14v-672q0 -101 46 -156t116 -55q160 0 247 139v592q-6 70 -53 102q-36 23 -133 27v12l358 25l15 -14v-768q7 -73 47 -101q31 -20 104 -24v-13l-321 -22l-15 14v125h-6q-72 -72 -108 -97q-91 -63 -219 -63q-136 0 -201.5 90.5t-65.5 243.5v457 q-6 70 -53 102q-47 30 -102 33z" />
<glyph unicode="v" horiz-adv-x="956" d="M-27 911v15h455v-19q-127 -4 -127 -43q0 -8 14 -43l256 -596l236 557q13 31 10 58q-5 55 -162 73v13h342v-11q-46 -7 -82 -32t-63 -82q-2 -5 -35.5 -78t-39 -85.5t-36 -80t-39 -88.5t-35 -80.5t-37.5 -87.5t-32 -79t-33 -84.5t-27 -74.5t-26 -77h-31l-366 825 q-21 48 -51.5 72t-90.5 28z" />
<glyph unicode="w" horiz-adv-x="1462" d="M-16 911v15h442v-19q-119 -5 -119 -43q0 -6 15 -43q6 -16 53.5 -138.5t94 -239.5t87.5 -214q98 254 182 451q-26 67 -61 143q-36 79 -125 88v15h424v-17q-117 -5 -117 -41q0 -12 14 -47q172 -459 228 -594q20 53 58 150.5t59 152t48.5 128.5t47.5 133q10 30 10 53 q0 32 -58.5 50.5t-97.5 18.5v13h342v-13q-46 -5 -93 -38.5t-66 -83.5q-40 -100 -75.5 -190.5t-79.5 -202t-77 -195.5q-40 -100 -78 -217h-36q-123 338 -252 663q-47 -106 -179 -446q-43 -111 -77 -217h-41q-15 39 -334 823q-20 50 -52 73t-87 29z" />
<glyph unicode="x" horiz-adv-x="964" d="M0 0v10q59 16 94 43t80 84q3 3 95.5 114t142.5 177q-4 6 -112.5 167t-152.5 224q-37 56 -66 74t-67 18v15h422v-15q-44 0 -78 -8t-34 -20q0 -13 18 -45l193 -291q160 214 198 270q15 20 12 37q-3 19 -32.5 30.5t-102.5 28.5v13h330v-11q-48 -12 -83 -31.5t-51 -35.5 t-44 -49q-57 -67 -213 -273q116 -170 274 -405q23 -36 37.5 -54t42 -34t62.5 -17v-16h-445v16q48 4 87.5 15t39.5 28q0 14 -29 62q-14 23 -84 125.5t-108 159.5q-155 -189 -221 -281q-21 -31 -21 -47q0 -29 37.5 -43t110.5 -21v-14h-332z" />
<glyph unicode="y" horiz-adv-x="946" d="M-27 911v15h449v-19q-123 -5 -123 -43q0 -8 14 -43q21 -54 66.5 -155.5t108.5 -237t94 -205.5q98 234 223 559q12 32 12 58q0 52 -155 73v13h327v-11q-46 -7 -83 -38t-58 -76q-77 -173 -342 -832q-46 -114 -88 -194.5t-77 -128.5t-72.5 -75t-69 -35.5t-72.5 -8.5 q-31 0 -64 12.5t-60.5 46t-27.5 80.5q0 43 33 81t84 38q46 0 80.5 -27.5t34.5 -83.5l-17 -110q41 4 86 48t80 104.5t64.5 120.5t45.5 101l15 42q-65 157 -128.5 300.5t-141.5 314t-98 216.5q-20 45 -50.5 68t-89.5 32z" />
<glyph unicode="z" horiz-adv-x="894" d="M49 0v18l582 885h-170q-168 0 -207 -16q-28 -11 -72.5 -82t-79.5 -146h-16v267h752v-19l-578 -884q102 -3 184 -3q58 0 187 7q59 2 114 110q62 121 84 172h17v-309h-797z" />
<glyph unicode="{" horiz-adv-x="847" d="M63 535v108q66 5 109.5 13t87.5 25.5t69 45t40.5 73t15.5 109.5q0 43 -16.5 133t-16.5 132q0 87 19 149.5t53 101t91 61t122 30.5t156 8v-15q-41 -2 -71.5 -7.5t-67 -22.5t-59.5 -44.5t-38.5 -77.5t-15.5 -118q0 -41 9 -119t9 -119q0 -60 -11 -108.5t-27.5 -83 t-45.5 -61.5t-57 -44t-70 -30t-75.5 -20t-82.5 -15v-100q48 -8 81.5 -15t75.5 -20.5t70 -30t57 -44t46 -61.5t28 -83t11 -109q0 -41 -9 -118.5t-9 -118.5q0 -69 16 -119t39 -77.5t59.5 -44.5t66.5 -22.5t71 -7.5v-14q-91 0 -156 8t-122 30.5t-91 61t-53 101t-19 149.5 q0 42 16.5 131.5t16.5 132.5q0 53 -10 94t-31 69t-47 46.5t-65 30t-77.5 17.5t-91.5 10z" />
<glyph unicode="|" horiz-adv-x="559" d="M250 -424v1952h61v-1952h-61z" />
<glyph unicode="}" horiz-adv-x="847" d="M55 -332q41 2 71 7.5t66.5 22.5t59.5 44.5t39 77.5t16 119q0 41 -9 118.5t-9 118.5q0 60 11 109t28 83t46 61.5t56.5 44t69.5 30t75.5 20.5t81.5 15v100q-49 8 -82.5 15t-75.5 20t-69.5 30t-56.5 44t-46 61.5t-27.5 83t-10.5 108.5q0 41 9 119t9 119q0 68 -16 118 t-39 77.5t-59.5 44.5t-66.5 22.5t-71 7.5v15q91 0 156 -8t122 -30.5t91 -61t53 -101t19 -149.5q0 -42 -16.5 -132t-16.5 -133q0 -64 15.5 -109.5t40.5 -73t69 -45t87 -25.5t109 -13v-108q-64 -5 -108 -12.5t-87.5 -25t-69 -45.5t-41 -74t-15.5 -110q0 -43 16.5 -132.5 t16.5 -131.5q0 -87 -19 -149.5t-53 -101t-91 -61t-122 -30.5t-156 -8v14z" />
<glyph unicode="~" horiz-adv-x="1073" d="M106 397q28 102 107 179t176 77q66 0 133.5 -23t125.5 -46t100 -23q76 0 124 31.5t84 99.5l11 -4q-31 -108 -101 -185t-164 -77q-70 0 -137.5 23t-123 46t-97.5 23q-158 0 -225 -125z" />
<glyph horiz-adv-x="0" />
<glyph unicode="&#xa1;" horiz-adv-x="659" d="M195 1300q0 57 39 95.5t96 38.5q56 0 94.5 -38.5t38.5 -95.5q0 -56 -39 -95.5t-94 -39.5q-57 0 -96 39.5t-39 95.5zM203 119q0 39 22.5 176t53 336t45.5 352h12q16 -199 66.5 -512t50.5 -352q0 -57 -35 -98t-90 -41t-90 41t-35 98z" />
<glyph unicode="&#xa2;" horiz-adv-x="958" d="M100 621q0 95 31.5 182.5t88.5 154.5t143 107.5t188 40.5q23 0 55 -4l64 270l28 -6l-61 -268q104 -20 164.5 -83.5t60.5 -144.5q0 -54 -26 -84t-76 -30q-39 0 -72 24.5t-33 75.5t17.5 95t17.5 57q-10 46 -59 69l-195 -821q63 -53 148 -53q103 0 174 37.5t131 136.5l14 -8 q-55 -117 -150.5 -178.5t-217.5 -61.5q-58 0 -123 14l-90 -374l-27 6l88 377q-134 46 -208.5 169.5t-74.5 299.5zM297 637q0 -112 30.5 -206t86.5 -150l190 804q-20 5 -49 5q-108 0 -183 -117.5t-75 -335.5z" />
<glyph unicode="&#xa3;" horiz-adv-x="1495" d="M-106 -20q0 92 106.5 149t253.5 57q101 0 285 -47q14 74 6 244h-346v25h346q-8 126 -8 190h-326v27h326q6 240 79.5 423t202 282.5t293.5 99.5q79 0 146 -21.5t112.5 -56.5t77.5 -80.5t46.5 -93.5t14.5 -95q0 -147 -91 -238t-234 -91q-108 0 -171 70.5t-63 181.5 q0 78 37 163l12 -4q-32 -74 -32 -147q0 -99 59.5 -157t151.5 -58q99 0 150.5 71.5t51.5 198.5q0 95 -26 170t-86.5 123.5t-147.5 48.5q-341 0 -358 -616q-4 -127 -10 -174h329v-27h-331q-16 -116 -41 -190h356v-25h-365q-62 -191 -110 -262q53 -18 154 -62.5t179.5 -69 t153.5 -24.5q61 0 109 20.5t77 50.5t50 75.5t31 83t18 86.5l14 -5q-57 -442 -475 -442q-24 0 -50.5 4t-48 8.5t-52.5 15.5t-49 18t-52.5 23.5t-48.5 23t-52.5 26t-49.5 24.5q-63 -75 -164.5 -126.5t-200.5 -51.5q-120 0 -179.5 50.5t-59.5 130.5zM-76 -43q0 -56 54 -96.5 t153 -40.5q94 0 186 46t158 122q-206 98 -375 98q-80 0 -128 -34.5t-48 -94.5z" />
<glyph unicode="&#xa4;" horiz-adv-x="1169" d="M59 494v26h150q-3 104 2 176h-152v27h156q20 153 89 275.5t188 197t270 74.5q160 0 255 -73t95 -175q0 -71 -29 -108t-71 -37q-48 0 -74.5 29.5t-26.5 72.5q0 34 27 80t27 76q-7 51 -66 83.5t-143 32.5q-142 0 -227 -141t-103 -387h465v-27h-467q-2 -68 2 -176h391v-26 h-389q8 -128 46.5 -227.5t114.5 -161.5t181 -62q122 0 205 68.5t141 189.5l17 -8q-33 -72 -69 -126t-86.5 -100.5t-119.5 -71t-153 -24.5q-207 0 -338.5 135.5t-155.5 387.5h-152z" />
<glyph unicode="&#xa5;" horiz-adv-x="1161" d="M-23 1229v14h560v-14q-170 -11 -170 -55q0 -24 87.5 -194.5t209.5 -389.5q33 57 87 147.5t88 148t69.5 120t53 98.5t17.5 47q0 63 -199 78v14h410v-14q-43 -5 -87.5 -31t-70.5 -63q-62 -89 -169 -264.5t-193 -327.5h329v-27h-331v-168h331v-26h-331v-181q0 -33 16 -59.5 t43 -38.5q22 -10 70.5 -18.5t79.5 -10.5v-14h-625v14q115 6 158 21q28 9 45.5 35.5t17.5 60.5v191h-317v26h317v168h-317v27h315q-202 408 -272 526q-49 93 -115 131q-44 25 -107 29z" />
<glyph unicode="&#xa6;" horiz-adv-x="559" d="M250 379h61v-803h-61v803zM250 743v785h61v-785h-61z" />
<glyph unicode="&#xa7;" horiz-adv-x="1077" d="M117 684q0 58 23.5 107t62.5 81.5t85.5 53t96.5 28.5q-84 122 -84 254q0 121 95.5 212t228.5 91q58 0 105.5 -22.5t75 -56.5t42 -70t14.5 -66q0 -69 -32 -109t-89 -40q-42 0 -71 28.5t-29 77.5q0 27 15.5 49t33.5 33.5t33.5 27t15.5 30.5q0 44 -36 74t-99 30 q-75 0 -129.5 -64.5t-54.5 -162.5q0 -68 28.5 -122t100.5 -147q47 -60 136 -161t126 -144q86 -101 122 -170.5t36 -154.5q0 -60 -23.5 -107t-64.5 -76.5t-86.5 -48t-100.5 -28.5q92 -130 92 -271q0 -122 -92.5 -213.5t-224.5 -91.5q-60 0 -110.5 23t-80.5 57.5t-46.5 70.5 t-16.5 66q0 69 33 109.5t90 40.5q41 0 70.5 -29.5t29.5 -77.5q0 -26 -11.5 -47.5t-25 -33.5t-25 -28.5t-11.5 -33.5q0 -42 33 -72.5t83 -30.5q83 0 132 68t49 174q0 68 -29 125t-96 141q-43 54 -129 147.5t-140 157.5q-82 97 -116.5 166t-34.5 156zM236 743q0 -42 30 -100 t72 -108q40 -48 170 -196.5t176 -213.5q158 42 158 188q0 91 -97 207q-47 57 -127 149.5t-134.5 158.5t-90.5 114q-70 -17 -113.5 -65.5t-43.5 -133.5z" />
<glyph unicode="&#xa8;" horiz-adv-x="1024" d="M170 1321q0 49 35 85t82 36q53 0 88 -33.5t35 -79.5q0 -52 -35.5 -88.5t-87.5 -36.5q-47 0 -82 35t-35 82zM614 1321q0 50 35 85.5t84 35.5q51 0 86 -34t35 -79q0 -51 -35 -88t-86 -37q-49 0 -84 34.5t-35 82.5z" />
<glyph unicode="&#xa9;" horiz-adv-x="1945" d="M80 514q0 178 70.5 341t190 281.5t285.5 188.5t349 70q182 0 347 -70t284 -188.5t189.5 -281.5t70.5 -341q0 -180 -70.5 -343.5t-189.5 -282t-284 -189t-347 -70.5q-183 0 -348.5 70.5t-285.5 189t-190.5 282t-70.5 343.5zM152 514q0 -170 64.5 -324t174.5 -265 t262.5 -176.5t321.5 -65.5q168 0 320 65.5t261.5 176.5t173.5 265t64 324q0 168 -64 320.5t-173.5 263t-261.5 176t-320 65.5q-169 0 -321.5 -65.5t-262.5 -176t-174.5 -263t-64.5 -320.5zM498 506q0 214 146 356t372 142q74 0 146.5 -21t111.5 -49l49 84h16l9 -371h-17 q-20 58 -34 94.5t-42.5 87.5t-59 80t-79 50.5t-106.5 21.5q-131 0 -221.5 -125.5t-90.5 -339.5q0 -190 87 -310t243 -120q210 0 326 238l24 -11q-128 -286 -391 -286q-222 0 -355.5 129.5t-133.5 349.5z" />
<glyph unicode="&#xaa;" horiz-adv-x="712" d="M100 821q0 66 31.5 100t87.5 58q30 12 105 33.5t100 34.5v71q0 20 -3.5 39.5t-12.5 42.5t-29.5 37t-50.5 14q-45 0 -70 -30q0 -9 6 -44t6 -51q0 -24 -17 -41.5t-52 -17.5q-34 0 -51 20.5t-17 51.5q0 54 65 92.5t136 38.5q49 0 82.5 -6t67 -23t50.5 -55t17 -96 q0 -60 -4 -160.5t-4 -110.5q0 -20 12.5 -41.5t40.5 -21.5q48 0 53 102h17q-9 -168 -129 -168q-82 0 -109 84q-76 -86 -180 -86q-68 0 -108 36.5t-40 96.5zM111 496v39h520v-39h-520zM236 844q0 -48 23 -75.5t58 -27.5q61 0 101 50l6 235q-90 -32 -139 -73t-49 -109z" />
<glyph unicode="&#xab;" horiz-adv-x="1124" d="M90 459q0 28 8.5 42.5t34.5 35.5q18 14 114 87t184 141t136 109l8 -8l-303 -411l303 -406l-8 -8q-66 53 -239 187.5t-191 148.5q-29 24 -38 38.5t-9 43.5zM522 459q0 28 8.5 42.5t34.5 35.5q356 269 434 337l9 -8l-303 -411l303 -406l-9 -8q-138 112 -430 336 q-29 24 -38 38.5t-9 43.5z" />
<glyph unicode="&#xac;" horiz-adv-x="1144" d="M86 522v70h928v-512h-72v442h-856z" />
<glyph unicode="&#xad;" horiz-adv-x="763" d="M61 449v141h641v-141h-641z" />
<glyph unicode="&#xae;" horiz-adv-x="970" d="M113 1067q0 158 107 265.5t265 107.5t265.5 -107.5t107.5 -265.5t-107.5 -265.5t-265.5 -107.5t-265 107.5t-107 265.5zM154 1067q0 -143 94.5 -241.5t236.5 -98.5t237 98.5t95 241.5t-95 241.5t-237 98.5t-236.5 -98.5t-94.5 -241.5zM295 872v13q29 0 41 6q18 9 18 31 v319q0 26 -18 31q-24 8 -41 8v12h215q53 0 94 -23.5t41 -70.5q0 -74 -119 -106v-7q30 -4 58.5 -19.5t36.5 -45.5q3 -14 9.5 -45t10.5 -47q7 -27 29 -27q35 0 35 51h12q0 -45 -17.5 -65.5t-58.5 -20.5q-76 0 -88 105q-3 22 -7 37t-13 32t-26.5 26t-43.5 9h-35v-153 q0 -23 18 -31q12 -6 41 -6v-13h-192zM428 1090h33q45 0 72.5 23t27.5 73q0 92 -84 92h-49v-188z" />
<glyph unicode="&#xaf;" horiz-adv-x="1024" d="M174 1221v127h676v-127h-676z" />
<glyph unicode="&#xb0;" horiz-adv-x="782" d="M86 1145q0 131 91.5 220t209.5 89q131 0 220 -78.5t89 -228.5q0 -124 -92.5 -211.5t-216.5 -87.5q-129 0 -215 78t-86 219zM215 1153q0 -76 17.5 -139.5t59 -106.5t101.5 -43q73 0 122.5 82.5t49.5 196.5q0 127 -45 211t-131 84q-57 0 -98 -43t-58.5 -106t-17.5 -136z " />
<glyph unicode="&#xb1;" horiz-adv-x="1146" d="M80 573v72h457v453h71v-453h457v-72h-457v-452h-71v452h-457zM111 0v72h923v-72h-923z" />
<glyph unicode="&#xb2;" horiz-adv-x="937" d="M141 1237q0 103 116 197t271 94q142 0 230 -63t88 -158q0 -128 -98.5 -218t-339.5 -198q-22 -11 -115 -78h436q15 0 28.5 3.5t27 14.5t22.5 18t23.5 26.5t20 27.5t22 34t20.5 32l10 -6l-127 -273h-629v55q17 11 71 45.5t68.5 43.5t55 35.5t56.5 39t44.5 33.5t48.5 38.5 t41 37.5q86 84 117 154.5t31 162.5q0 79 -45 126.5t-125 47.5q-73 0 -133.5 -38.5t-91.5 -92t-31 -106.5q0 -44 24.5 -73.5t79.5 -29.5q54 0 98 35.5t70 79.5l13 -10q-102 -170 -260 -170q-64 0 -101 34.5t-37 98.5z" />
<glyph unicode="&#xb3;" horiz-adv-x="929" d="M98 868q0 52 35.5 86.5t81.5 34.5q36 0 57 -21t21 -57q0 -24 -13 -41.5t-29 -25t-29 -19t-13 -26.5q0 -41 47 -72t127 -31q112 0 196.5 86.5t84.5 194.5q0 72 -28 119t-93 47q-24 0 -56 -17.5t-52 -32.5t-56 -46l-21 30q150 79 196 113q100 76 101 170q0 67 -40 108 t-107 41q-39 0 -87 -22t-86 -64.5t-38 -91.5q0 -38 21 -61t63 -23q16 0 31 3.5t28.5 11.5t21 13t20 15.5t14.5 12.5l6 -9q-31 -39 -83.5 -69.5t-105.5 -30.5q-69 0 -103 28.5t-34 77.5q0 85 116.5 156.5t258.5 71.5q70 0 123.5 -16t82 -42t42.5 -54.5t14 -59.5 q0 -60 -68 -113.5t-198 -81.5q78 2 139 -13.5t102 -58.5t41 -110q0 -131 -129.5 -215t-314.5 -84q-69 0 -132.5 19.5t-109 64t-45.5 104.5z" />
<glyph unicode="&#xb4;" horiz-adv-x="1024" d="M309 1083q44 76 101.5 183t78.5 143q28 47 57 67.5t68 20.5q34 0 58 -24t24 -54q0 -35 -15.5 -57t-57.5 -55q-19 -16 -114.5 -87.5t-189.5 -146.5z" />
<glyph unicode="&#xb5;" horiz-adv-x="1169" d="M117 -360q0 60 21.5 159.5t23.5 112.5q10 83 10 217v803h186v-653q0 -99 55.5 -159.5t135.5 -60.5q150 0 221 117v756h186v-742q0 -42 27.5 -74t75.5 -32q51 0 78 46.5t32 113.5h17q-9 -142 -59 -202t-150 -60q-151 0 -203 157h-6q-129 -159 -295 -159q-172 0 -268 145 h-4v-131q0 -68 44 -183.5t44 -164.5q0 -51 -25.5 -80t-60.5 -29t-60.5 29t-25.5 74z" />
<glyph unicode="&#xb6;" horiz-adv-x="1247" d="M121 1036q0 48 12 95.5t41 96.5t72 86.5t112.5 61t155.5 23.5h700v-29h-290v-1626h-35v1626h-215v-1626h-35v944h-61q-105 0 -187 21t-132 54.5t-82 80.5t-44 93.5t-12 98.5z" />
<glyph unicode="&#xb7;" horiz-adv-x="512" d="M119 557q0 57 40 97t97 40t97 -40t40 -97t-40 -96t-97 -39t-97 39t-40 96z" />
<glyph unicode="&#xb8;" horiz-adv-x="1024" d="M289 -446q45 0 79 2t74.5 10t66.5 21t44 37.5t18 58.5q0 26 -15 43.5t-43 25t-54 10t-62 2.5v236h27v-119q62 0 109.5 -6t91 -22t67 -48t23.5 -79q0 -43 -16 -76t-48 -54t-69 -35t-89.5 -20.5t-98 -9t-105.5 -2.5v25z" />
<glyph unicode="&#xb9;" horiz-adv-x="696" d="M37 1499l4 8q81 -30 164 -30q132 0 244 57h10q-19 -80 -19 -209v-532q0 -46 47 -64q36 -12 138 -20v-15h-535v15q116 7 143 14q22 6 36 23.5t14 41.5v652q-27 -6 -64 -6q-98 0 -182 65z" />
<glyph unicode="&#xba;" horiz-adv-x="741" d="M86 975q0 131 82.5 213t204.5 82q123 0 202.5 -81t79.5 -208q0 -129 -80 -214t-208 -85q-113 0 -197 80t-84 213zM111 496v39h520v-39h-520zM229 983q0 -54 7 -102t23 -90.5t45 -67.5t69 -25q38 0 66 24.5t43.5 66.5t22.5 89.5t7 102.5q0 69 -11 126t-44 100.5t-84 43.5 q-41 0 -70.5 -25.5t-45 -67.5t-22 -85.5t-6.5 -89.5z" />
<glyph unicode="&#xbb;" horiz-adv-x="1124" d="M117 49l303 406l-303 411l8 8q47 -41 134.5 -109t184.5 -141t115 -87q26 -21 34.5 -35.5t8.5 -42.5q0 -29 -9 -43.5t-38 -38.5q-223 -171 -430 -336zM551 49l301 406l-301 411l6 8q48 -41 136 -109t184 -141t114 -87q26 -21 34.5 -35.5t8.5 -42.5q0 -29 -9 -43.5 t-38 -38.5q-18 -14 -191 -148.5t-239 -187.5z" />
<glyph unicode="&#xbc;" horiz-adv-x="1153" d="M90 504v51h971v-51h-971zM174 -147l528 524h54v-506h21q46 0 68 0.5t47 4.5t38 13q18 13 29.5 43.5t11.5 57.5h14v-305h-14q-4 77 -45 110q-4 3 -9 5.5t-12 4t-13.5 2.5t-17 1.5t-18.5 1t-22 0.5h-23.5h-26.5h-28v-179q0 -49 41 -63q36 -14 102 -19v-14h-436v14 q81 6 102 13q43 13 43 61v187h-434v43zM227 -129h381v379zM264 1499l4 8q89 -32 160 -32q132 0 248 59h10q-18 -76 -18 -209v-532q0 -46 47 -64q36 -13 137 -20v-15h-535v15q117 8 144 14q49 14 49 65v652q-27 -6 -64 -6q-98 0 -182 65z" />
<glyph unicode="&#xbd;" horiz-adv-x="1153" d="M90 504v51h971v-51h-971zM238 82q0 103 116 197t271 94q142 0 229.5 -63t87.5 -158q0 -129 -96.5 -219t-335.5 -197q-41 -21 -121 -78h436q15 0 28.5 3.5t27 14.5t22.5 18t23.5 26.5t20 27.5t22 34t20.5 32l10 -7l-127 -272h-628v55q17 11 71 45.5t68.5 43.5t55 35.5 t56.5 39t44.5 33.5t48.5 38.5t41 37.5q86 84 116.5 154.5t30.5 162.5q0 79 -45 126.5t-125 47.5q-73 0 -133.5 -38.5t-91.5 -92t-31 -106.5q0 -44 25 -73.5t80 -29.5q54 0 98 35.5t70 79.5l12 -10q-102 -170 -260 -170q-64 0 -100.5 34.5t-36.5 98.5zM264 1499l4 8 q89 -32 160 -32q132 0 248 59h10q-18 -76 -18 -209v-532q0 -46 47 -64q36 -13 137 -20v-15h-535v15q117 8 144 14q49 14 49 65v652q-27 -6 -64 -6q-98 0 -182 65z" />
<glyph unicode="&#xbe;" horiz-adv-x="1153" d="M90 504v51h971v-51h-971zM174 -147l528 524h54v-506h21q46 0 68 0.5t47 4.5t38 13q18 13 29.5 43.5t11.5 57.5h14v-305h-14q-4 77 -45 110q-4 3 -9 5.5t-12 4t-13.5 2.5t-17 1.5t-18.5 1t-22 0.5h-23.5h-26.5h-28v-179q0 -49 41 -63q36 -14 102 -19v-14h-436v14 q81 6 102 13q43 13 43 61v187h-434v43zM193 868q0 52 35 86.5t81 34.5q36 0 57 -21t21 -57q0 -24 -13 -41.5t-29 -25t-29 -19t-13 -26.5q0 -41 47 -72t127 -31q112 0 196.5 86.5t84.5 194.5q0 72 -28 119t-93 47q-24 0 -56 -17.5t-52 -32.5t-56 -46l-20 30q150 79 196 113 q100 76 101 170q0 66 -40.5 107.5t-107.5 41.5q-39 0 -87 -22t-86 -64.5t-38 -91.5q0 -38 21 -61t63 -23q16 0 31 3.5t28.5 11.5t21 13t20 15.5t14.5 12.5l6 -9q-31 -40 -83 -70t-105 -30q-70 0 -104 28.5t-34 77.5q0 85 116.5 156.5t258.5 71.5q70 0 123.5 -16t82 -42 t42.5 -54.5t14 -59.5q0 -60 -68 -113.5t-198 -81.5q58 2 107 -7t89.5 -29.5t63.5 -57.5t23 -88q0 -87 -61 -156t-162 -106t-222 -37q-69 0 -132.5 19.5t-108.5 64t-45 104.5zM227 -129h381v379z" />
<glyph unicode="&#xbf;" horiz-adv-x="987" d="M119 391q0 175 132.5 295t354.5 139l12 219h21v-380q-81 -12 -137.5 -31t-101.5 -54t-67 -90.5t-22 -134.5q0 -181 67.5 -265.5t178.5 -84.5q42 0 84 16t61 39q-1 9 -13.5 59.5t-12.5 82.5q0 51 32.5 79.5t79.5 28.5q52 0 79.5 -33.5t27.5 -85.5q0 -82 -94.5 -145 t-247.5 -63q-209 0 -321.5 113.5t-112.5 295.5zM487 1303q0 57 40.5 96t97.5 39t97 -39t40 -96t-40 -97.5t-97 -40.5t-97.5 40.5t-40.5 97.5z" />
<glyph unicode="&#xc0;" horiz-adv-x="1392" d="M-49 0v14q71 4 129 35q62 37 117 164q97 234 485 1208h37q124 -313 314.5 -778t201.5 -491q30 -77 84 -109q46 -25 125 -29v-14h-645v14q75 4 142.5 21t74.5 49q5 22 -8 57l-146 375h-508q-58 -140 -102 -289q-29 -93 -29 -123q0 -76 250 -90v-14h-522zM365 545h485 l-244 616zM467 1831q0 30 25 54t59 24q40 0 68.5 -19t56.5 -69q19 -33 77.5 -143t102.5 -185l-10 -8q-94 75 -190 146.5t-115 86.5q-42 33 -58 55.5t-16 57.5z" />
<glyph unicode="&#xc1;" horiz-adv-x="1392" d="M-49 0v14q71 4 129 35q62 37 117 164q97 234 485 1208h37q124 -313 314.5 -778t201.5 -491q30 -77 84 -109q46 -25 125 -29v-14h-645v14q75 4 142.5 21t74.5 49q5 22 -8 57l-146 375h-508q-58 -140 -102 -289q-29 -93 -29 -123q0 -76 250 -90v-14h-522zM365 545h485 l-244 616zM504 1495q44 76 101.5 183t78.5 143q28 47 57 67.5t68 20.5q34 0 58 -24t24 -54q0 -35 -16 -57.5t-58 -55.5q-19 -16 -114 -87t-189 -146z" />
<glyph unicode="&#xc2;" horiz-adv-x="1392" d="M-49 0v14q71 4 129 35q62 37 117 164q97 234 485 1208h37q124 -313 314.5 -778t201.5 -491q30 -77 84 -109q46 -25 125 -29v-14h-645v14q75 4 142.5 21t74.5 49q5 22 -8 57l-146 375h-508q-58 -140 -102 -289q-29 -93 -29 -123q0 -76 250 -90v-14h-522zM365 545h485 l-244 616zM375 1516q112 163 233 350q21 31 34.5 38t55.5 7q30 0 44 -4t20 -10t20 -27q22 -31 99 -148.5t137 -205.5l-14 -13l-310 262l-305 -262z" />
<glyph unicode="&#xc3;" horiz-adv-x="1392" d="M-49 0v14q71 4 129 35q62 37 117 164q97 234 485 1208h37q124 -313 314.5 -778t201.5 -491q30 -77 84 -109q46 -25 125 -29v-14h-645v14q75 4 142.5 21t74.5 49q5 22 -8 57l-146 375h-508q-58 -140 -102 -289q-29 -93 -29 -123q0 -76 250 -90v-14h-522zM297 1554 q14 40 36.5 80.5t54.5 82t75.5 67.5t89.5 26q53 0 105 -18.5t85 -40.5t73 -40.5t73 -18.5q66 0 109.5 34.5t76.5 102.5l19 -6q-15 -54 -49.5 -110t-93 -101t-120.5 -45q-56 0 -106.5 18t-82 39t-72 39t-78.5 18q-57 0 -96.5 -31.5t-80.5 -103.5zM365 545h485l-244 616z" />
<glyph unicode="&#xc4;" horiz-adv-x="1392" d="M-49 0v14q71 4 129 35q62 37 117 164q97 234 485 1208h37q124 -313 314.5 -778t201.5 -491q30 -77 84 -109q46 -25 125 -29v-14h-645v14q75 4 142.5 21t74.5 49q5 22 -8 57l-146 375h-508q-58 -140 -102 -289q-29 -93 -29 -123q0 -76 250 -90v-14h-522zM352 1681 q0 49 35 85t82 36q53 0 88 -33.5t35 -78.5q0 -52 -35.5 -88.5t-87.5 -36.5q-47 0 -82 34.5t-35 81.5zM365 545h485l-244 616zM797 1681q0 50 34.5 85.5t83.5 35.5q51 0 86 -33.5t35 -78.5q0 -51 -35 -88t-86 -37q-49 0 -83.5 34t-34.5 82z" />
<glyph unicode="&#xc5;" horiz-adv-x="1392" d="M-49 0v14q71 4 129 35q62 37 117 164q97 234 485 1208h37q124 -313 314.5 -778t201.5 -491q30 -77 84 -109q46 -25 125 -29v-14h-645v14q75 4 142.5 21t74.5 49q5 22 -8 57l-146 375h-508q-58 -140 -102 -289q-29 -93 -29 -123q0 -76 250 -90v-14h-522zM365 545h485 l-244 616zM467 1698q0 88 66 144t163 56q101 0 165.5 -55t64.5 -145q0 -89 -63.5 -145t-166.5 -56q-105 0 -167 55t-62 146zM573 1698q0 -75 31 -128.5t92 -53.5q62 0 92.5 53t30.5 129q0 74 -31 128t-92 54t-92 -52.5t-31 -129.5z" />
<glyph unicode="&#xc6;" horiz-adv-x="2013" d="M-57 0v14q32 2 74 12.5t69 26.5q78 45 160 187l647 1122q-15 5 -48 9t-58.5 5.5t-64.5 3.5l-38 2v17h1171v-318h-18q-20 77 -94 178t-135 109q-65 8 -207 8h-232v-639h205q53 0 92 13.5t48.5 22t31.5 30.5t45.5 90.5t28.5 112.5h18v-572h-18q-3 44 -29 118.5t-45 94.5 t-32.5 31t-51 23t-88.5 12h-205v-502q0 -44 3 -72.5t14.5 -50.5t26.5 -33.5t45.5 -18.5t64.5 -9t90 -2h29q90 0 137 1.5t104 12.5t78 33q42 44 106 157t81 164h18l-27 -393h-1212v14q102 5 158 23q36 13 51.5 37t15.5 63v438h-477l-186 -335q-39 -72 -39 -127q0 -47 73 -70 t171 -27v-16h-551zM492 604h460v756h-28z" />
<glyph unicode="&#xc7;" horiz-adv-x="1337" d="M76 682q0 156 55 294t150.5 236.5t229.5 155.5t286 57q121 0 213.5 -33.5t144.5 -82.5l78 110h18l9 -506h-19q-23 75 -54.5 142t-76.5 131t-97.5 109.5t-121.5 73.5t-146 28q-195 0 -309 -179.5t-114 -519.5q0 -186 58 -333.5t170.5 -233.5t262.5 -86q91 0 168 25t135 70 t100.5 101t73.5 126l23 -13q-34 -77 -80 -141t-113 -121.5t-160.5 -90t-205.5 -32.5q-9 0 -26.5 1t-25.5 1v-90q62 0 109.5 -6t91 -22t67 -48t23.5 -79q0 -43 -16 -76t-48 -54t-69 -35t-89.5 -20.5t-98 -9t-105.5 -2.5v25q45 0 79 2t74.5 10t67 21t44.5 37.5t18 58.5 q0 26 -15 43.5t-43 25t-54 10t-62 2.5v209q-272 25 -436 216t-164 493z" />
<glyph unicode="&#xc8;" horiz-adv-x="1363" d="M78 0v14q34 2 87.5 9.5t74.5 15.5q63 23 63 100v1108q0 82 -63 107q-60 24 -162 30v15h1128v-318h-18q-20 77 -94.5 178t-135.5 109q-65 8 -206 8h-232v-639h205q53 0 92 13.5t48.5 22t31.5 30.5t45.5 90.5t28.5 112.5h18v-572h-18q-3 44 -29 118.5t-45 94.5t-32.5 31 t-51 23t-88.5 12h-205v-502q0 -44 3 -72.5t14.5 -50.5t26.5 -33.5t45.5 -18.5t64.5 -9t90 -2h29q90 0 137 1.5t104 12.5t78 33q42 44 105.5 156.5t80.5 164.5h19l-27 -393h-1212zM487 1829q0 30 25 54t59 24q40 0 68.5 -19t56.5 -69q19 -33 78 -143t103 -185l-11 -8 q-94 75 -190 146.5t-115 86.5q-42 33 -58 55.5t-16 57.5z" />
<glyph unicode="&#xc9;" horiz-adv-x="1363" d="M78 0v14q34 2 87.5 9.5t74.5 15.5q63 23 63 100v1108q0 82 -63 107q-60 24 -162 30v15h1128v-318h-18q-20 77 -94.5 178t-135.5 109q-65 8 -206 8h-232v-639h205q53 0 92 13.5t48.5 22t31.5 30.5t45.5 90.5t28.5 112.5h18v-572h-18q-3 44 -29 118.5t-45 94.5t-32.5 31 t-51 23t-88.5 12h-205v-502q0 -44 3 -72.5t14.5 -50.5t26.5 -33.5t45.5 -18.5t64.5 -9t90 -2h29q90 0 137 1.5t104 12.5t78 33q42 44 105.5 156.5t80.5 164.5h19l-27 -393h-1212zM639 1493q44 76 101.5 183t78.5 143q28 47 57 67.5t68 20.5q34 0 58 -24t24 -54 q0 -35 -16 -57.5t-58 -55.5q-19 -16 -114 -87t-189 -146z" />
<glyph unicode="&#xca;" horiz-adv-x="1363" d="M78 0v14q34 2 87.5 9.5t74.5 15.5q63 23 63 100v1108q0 82 -63 107q-60 24 -162 30v15h1128v-318h-18q-20 77 -94.5 178t-135.5 109q-65 8 -206 8h-232v-639h205q53 0 92 13.5t48.5 22t31.5 30.5t45.5 90.5t28.5 112.5h18v-572h-18q-3 44 -29 118.5t-45 94.5t-32.5 31 t-51 23t-88.5 12h-205v-502q0 -44 3 -72.5t14.5 -50.5t26.5 -33.5t45.5 -18.5t64.5 -9t90 -2h29q90 0 137 1.5t104 12.5t78 33q42 44 105.5 156.5t80.5 164.5h19l-27 -393h-1212zM360 1516q128 185 234 350q21 31 34.5 38t55.5 7q30 0 44 -4t20 -10t20 -27q22 -31 99 -148.5 t137 -205.5l-15 -13l-309 262l-305 -262z" />
<glyph unicode="&#xcb;" horiz-adv-x="1363" d="M78 0v14q34 2 87.5 9.5t74.5 15.5q63 23 63 100v1108q0 82 -63 107q-60 24 -162 30v15h1128v-318h-18q-20 77 -94.5 178t-135.5 109q-65 8 -206 8h-232v-639h205q53 0 92 13.5t48.5 22t31.5 30.5t45.5 90.5t28.5 112.5h18v-572h-18q-3 44 -29 118.5t-45 94.5t-32.5 31 t-51 23t-88.5 12h-205v-502q0 -44 3 -72.5t14.5 -50.5t26.5 -33.5t45.5 -18.5t64.5 -9t90 -2h29q90 0 137 1.5t104 12.5t78 33q42 44 105.5 156.5t80.5 164.5h19l-27 -393h-1212zM340 1681q0 49 35 85t82 36q53 0 88 -33.5t35 -78.5q0 -52 -35.5 -88.5t-87.5 -36.5 q-47 0 -82 34.5t-35 81.5zM784 1681q0 50 35 85.5t84 35.5q51 0 86 -33.5t35 -78.5q0 -51 -35 -88t-86 -37q-49 0 -84 34.5t-35 81.5z" />
<glyph unicode="&#xcc;" horiz-adv-x="831" d="M94 0v14q109 6 150 21q63 23 63 100v1112q0 81 -63 107q-25 10 -72.5 19t-77.5 11v15h643v-15q-83 -4 -149 -26q-64 -20 -64 -101v-1112q0 -79 64 -106q18 -7 68.5 -15t80.5 -10v-14h-643zM193 1827q0 30 24.5 54t58.5 24q40 0 68.5 -19t56.5 -69q19 -33 78 -143 t103 -185l-11 -8q-94 75 -190 146.5t-115 86.5q-41 33 -57 55t-16 58z" />
<glyph unicode="&#xcd;" horiz-adv-x="831" d="M94 0v14q109 6 150 21q63 23 63 100v1112q0 81 -63 107q-25 10 -72.5 19t-77.5 11v15h643v-15q-83 -4 -149 -26q-64 -20 -64 -101v-1112q0 -79 64 -106q18 -7 68.5 -15t80.5 -10v-14h-643zM256 1495q44 76 101.5 183t78.5 143q28 47 57 67.5t68 20.5q34 0 58 -24t24 -54 q0 -35 -16 -57.5t-58 -55.5q-19 -16 -114 -87t-189 -146z" />
<glyph unicode="&#xce;" horiz-adv-x="831" d="M94 0v14q109 6 150 21q63 23 63 100v1112q0 81 -63 107q-25 10 -72.5 19t-77.5 11v15h643v-15q-83 -4 -149 -26q-64 -20 -64 -101v-1112q0 -79 64 -106q18 -7 68.5 -15t80.5 -10v-14h-643zM94 1516q128 185 234 350q21 31 34.5 38t55.5 7q30 0 44 -4t20 -10t20 -27 q21 -31 98 -148.5t137 -205.5l-14 -13l-309 262l-305 -262z" />
<glyph unicode="&#xcf;" horiz-adv-x="831" d="M74 1681q0 49 34.5 85t81.5 36q53 0 88 -33.5t35 -78.5q0 -52 -35.5 -88.5t-87.5 -36.5q-47 0 -81.5 34.5t-34.5 81.5zM94 0v14q109 6 150 21q63 23 63 100v1112q0 81 -63 107q-25 10 -72.5 19t-77.5 11v15h643v-15q-83 -4 -149 -26q-64 -20 -64 -101v-1112 q0 -79 64 -106q18 -7 68.5 -15t80.5 -10v-14h-643zM518 1681q0 50 35 85.5t84 35.5q51 0 86 -33.5t35 -78.5q0 -51 -35 -88t-86 -37q-49 0 -84 34.5t-35 81.5z" />
<glyph unicode="&#xd0;" horiz-adv-x="1595" d="M88 0v14q31 0 81.5 7t70.5 14q63 23 63 100v584h-205v43h205v485q0 85 -63 111q-51 21 -144 26v15h660q64 0 131 -9.5t143 -33t145 -59.5t132.5 -93t110 -128t74.5 -170.5t28 -215.5q0 -139 -46 -254.5t-123.5 -195t-181.5 -134.5t-218.5 -80.5t-235.5 -25.5h-627z M520 182q10 -79 60 -118t163 -39q132 0 233.5 49t164.5 139t95 210.5t32 268.5q0 196 -70 351t-200.5 244t-299.5 89q-88 0 -178 -4v-610h301v-43h-301v-537z" />
<glyph unicode="&#xd1;" horiz-adv-x="1589" d="M10 1384v15h422l883 -1084v713q0 114 -18 196t-52 109q-56 44 -209 51v15h563v-15q-39 -2 -98.5 -15t-89.5 -34q-68 -47 -68 -307v-1042h-34l-985 1212v-838q0 -128 17 -193t52 -91q29 -22 102 -41t109 -21v-14h-567v14q32 2 101 21t89 35q37 29 52.5 94t15.5 186v803 q0 45 -23 98.5t-53 77.5q-33 26 -94 39.5t-115 15.5zM451 1554q14 40 36.5 80.5t54.5 82t75.5 67.5t89.5 26q53 0 104.5 -18.5t85 -40.5t73 -40.5t72.5 -18.5q66 0 110.5 34.5t76.5 102.5l18 -6q-11 -39 -34.5 -81.5t-56.5 -82.5t-78.5 -66t-92.5 -26q-56 0 -107 18 t-82.5 39t-72 39t-78.5 18q-56 0 -95 -31.5t-81 -103.5z" />
<glyph unicode="&#xd2;" d="M78 684q0 337 198 535q210 213 519 213q301 0 520 -213q91 -91 142.5 -225.5t51.5 -284.5q0 -345 -213 -545q-206 -197 -510 -197q-284 0 -489 193q-219 206 -219 524zM326 694q0 -147 29 -272.5t85.5 -222.5t147.5 -152t207 -55q154 0 261 95t156.5 252.5t49.5 362.5 q0 110 -15.5 209.5t-51 191t-88.5 158.5t-133 106.5t-179 39.5q-218 0 -343.5 -190t-125.5 -523zM598 1829q0 30 25 54t59 24q40 0 68.5 -19t56.5 -69q19 -33 77.5 -143t102.5 -185l-10 -8q-94 75 -190 146.5t-115 86.5q-42 33 -58 55.5t-16 57.5z" />
<glyph unicode="&#xd3;" d="M78 684q0 337 198 535q210 213 519 213q301 0 520 -213q91 -91 142.5 -225.5t51.5 -284.5q0 -345 -213 -545q-206 -197 -510 -197q-284 0 -489 193q-219 206 -219 524zM326 694q0 -147 29 -272.5t85.5 -222.5t147.5 -152t207 -55q154 0 261 95t156.5 252.5t49.5 362.5 q0 110 -15.5 209.5t-51 191t-88.5 158.5t-133 106.5t-179 39.5q-218 0 -343.5 -190t-125.5 -523zM598 1493q44 76 101.5 183t78.5 143q28 47 57 67.5t68 20.5q34 0 58 -24t24 -54q0 -35 -16 -57.5t-58 -55.5q-19 -16 -114 -87t-189 -146z" />
<glyph unicode="&#xd4;" d="M78 684q0 337 198 535q210 213 519 213q301 0 520 -213q91 -91 142.5 -225.5t51.5 -284.5q0 -345 -213 -545q-206 -197 -510 -197q-284 0 -489 193q-219 206 -219 524zM326 694q0 -147 29 -272.5t85.5 -222.5t147.5 -152t207 -55q154 0 261 95t156.5 252.5t49.5 362.5 q0 110 -15.5 209.5t-51 191t-88.5 158.5t-133 106.5t-179 39.5q-218 0 -343.5 -190t-125.5 -523zM471 1516q128 185 234 350q21 31 34.5 38t55.5 7q30 0 44 -4t20 -10t20 -27q21 -31 98 -148.5t137 -205.5l-14 -13l-309 262l-306 -262z" />
<glyph unicode="&#xd5;" d="M78 684q0 337 198 535q210 213 519 213q301 0 520 -213q91 -91 142.5 -225.5t51.5 -284.5q0 -345 -213 -545q-206 -197 -510 -197q-284 0 -489 193q-219 206 -219 524zM326 694q0 -147 29 -272.5t85.5 -222.5t147.5 -152t207 -55q154 0 261 95t156.5 252.5t49.5 362.5 q0 110 -15.5 209.5t-51 191t-88.5 158.5t-133 106.5t-179 39.5q-218 0 -343.5 -190t-125.5 -523zM395 1554q14 40 36.5 80.5t54.5 82t75.5 67.5t89.5 26q53 0 105 -18.5t85 -40.5t73 -40.5t73 -18.5q66 0 110.5 34.5t76.5 102.5l18 -6q-11 -39 -34.5 -81.5t-56.5 -82.5 t-78.5 -66t-92.5 -26q-56 0 -107 18t-82.5 39t-72 39t-78.5 18q-56 0 -95 -31.5t-81 -103.5z" />
<glyph unicode="&#xd6;" d="M78 684q0 337 198 535q210 213 519 213q301 0 520 -213q91 -91 142.5 -225.5t51.5 -284.5q0 -345 -213 -545q-206 -197 -510 -197q-284 0 -489 193q-219 206 -219 524zM326 694q0 -147 29 -272.5t85.5 -222.5t147.5 -152t207 -55q154 0 261 95t156.5 252.5t49.5 362.5 q0 110 -15.5 209.5t-51 191t-88.5 158.5t-133 106.5t-179 39.5q-218 0 -343.5 -190t-125.5 -523zM451 1681q0 49 34.5 85t81.5 36q53 0 88 -33.5t35 -78.5q0 -52 -35.5 -88.5t-87.5 -36.5q-47 0 -81.5 34.5t-34.5 81.5zM895 1681q0 50 35 85.5t84 35.5q51 0 86 -33.5 t35 -78.5q0 -51 -35 -88t-86 -37q-49 0 -84 34.5t-35 81.5z" />
<glyph unicode="&#xd7;" horiz-adv-x="1144" d="M119 123l407 405l-405 406l51 49l403 -403l404 403l45 -47l-403 -401l405 -406l-49 -51l-408 405l-403 -407z" />
<glyph unicode="&#xd8;" d="M78 684q0 337 198 535q210 213 519 213q279 0 487 -185l188 207l23 -16l-190 -209q99 -98 152.5 -233.5t53.5 -286.5q0 -345 -213 -545q-206 -197 -510 -197q-273 0 -475 180l-196 -215l-23 19l197 215q-211 201 -211 518zM326 694q0 -241 71 -411l783 854 q-122 270 -385 270q-218 0 -343.5 -190t-125.5 -523zM410 256q124 -264 385 -264q154 0 261 95t156.5 252.5t49.5 362.5q0 235 -70 408z" />
<glyph unicode="&#xd9;" horiz-adv-x="1619" d="M70 1384v15h637v-15q-81 -4 -148 -26q-63 -20 -63 -101v-862q0 -50 7.5 -94t32 -93.5t63.5 -84.5t108 -58.5t161 -23.5q117 0 207 33.5t141.5 89t77 119t25.5 131.5v637q0 229 -70 274q-83 54 -209 59v15h564v-15q-35 -2 -97.5 -16.5t-91.5 -32.5q-67 -43 -67 -272v-657 q0 -96 -36 -173.5t-91.5 -126t-128 -81t-140.5 -45.5t-133 -13q-130 0 -235 32.5t-171.5 88.5t-101.5 128t-35 153v886q0 69 -63 103q-41 20 -143 26zM645 1829q0 30 25 54t59 24q40 0 68.5 -19t56.5 -69q19 -33 77.5 -143t102.5 -185l-10 -8q-94 75 -190 146.5t-115 86.5 q-42 33 -58 55.5t-16 57.5z" />
<glyph unicode="&#xda;" horiz-adv-x="1619" d="M70 1384v15h637v-15q-81 -4 -148 -26q-63 -20 -63 -101v-862q0 -50 7.5 -94t32 -93.5t63.5 -84.5t108 -58.5t161 -23.5q117 0 207 33.5t141.5 89t77 119t25.5 131.5v637q0 229 -70 274q-83 54 -209 59v15h564v-15q-35 -2 -97.5 -16.5t-91.5 -32.5q-67 -43 -67 -272v-657 q0 -96 -36 -173.5t-91.5 -126t-128 -81t-140.5 -45.5t-133 -13q-130 0 -235 32.5t-171.5 88.5t-101.5 128t-35 153v886q0 69 -63 103q-41 20 -143 26zM698 1493q43 75 101 182t80 144q28 47 57 67.5t68 20.5q34 0 57.5 -24t23.5 -54q0 -36 -16 -58t-57 -55q-19 -16 -114 -87 t-189 -146z" />
<glyph unicode="&#xdb;" horiz-adv-x="1619" d="M70 1384v15h637v-15q-81 -4 -148 -26q-63 -20 -63 -101v-862q0 -50 7.5 -94t32 -93.5t63.5 -84.5t108 -58.5t161 -23.5q117 0 207 33.5t141.5 89t77 119t25.5 131.5v637q0 229 -70 274q-83 54 -209 59v15h564v-15q-35 -2 -97.5 -16.5t-91.5 -32.5q-67 -43 -67 -272v-657 q0 -96 -36 -173.5t-91.5 -126t-128 -81t-140.5 -45.5t-133 -13q-130 0 -235 32.5t-171.5 88.5t-101.5 128t-35 153v886q0 69 -63 103q-41 20 -143 26zM555 1516q112 163 233 350q21 31 34.5 38t56.5 7q30 0 44 -4t20 -10t20 -27q21 -31 98 -148.5t137 -205.5l-14 -13 l-310 262l-305 -262z" />
<glyph unicode="&#xdc;" horiz-adv-x="1619" d="M70 1384v15h637v-15q-81 -4 -148 -26q-63 -20 -63 -101v-862q0 -50 7.5 -94t32 -93.5t63.5 -84.5t108 -58.5t161 -23.5q117 0 207 33.5t141.5 89t77 119t25.5 131.5v637q0 229 -70 274q-83 54 -209 59v15h564v-15q-35 -2 -97.5 -16.5t-91.5 -32.5q-67 -43 -67 -272v-657 q0 -96 -36 -173.5t-91.5 -126t-128 -81t-140.5 -45.5t-133 -13q-130 0 -235 32.5t-171.5 88.5t-101.5 128t-35 153v886q0 69 -63 103q-41 20 -143 26zM537 1681q0 49 34.5 85t81.5 36q53 0 88 -33.5t35 -78.5q0 -52 -35.5 -88.5t-87.5 -36.5q-47 0 -81.5 34.5t-34.5 81.5z M981 1681q0 50 35 85.5t84 35.5q51 0 86 -33.5t35 -78.5q0 -51 -35 -88t-86 -37q-49 0 -84 34.5t-35 81.5z" />
<glyph unicode="&#xdd;" horiz-adv-x="1300" d="M-66 1384v15h660v-15q-75 -4 -141 -21.5t-66 -49.5q0 -20 100 -205q121 -222 258 -465q201 334 265 451q86 159 86 192q0 24 -23 43t-61.5 29.5t-76 16.5t-77.5 9v15h494v-15q-53 -4 -92 -28q-41 -24 -64 -44.5t-51 -60.5q-82 -118 -336 -567q-37 -67 -47 -109t-10 -120 v-310q0 -75 63 -102q18 -7 78.5 -17t89.5 -12v-14h-680v14q32 2 90.5 10t77.5 15q64 24 64 102v387q0 48 -54 154q-126 248 -291 528q-61 106 -122 142q-51 28 -134 32zM584 1493q44 76 101.5 183t78.5 143q28 47 57 67.5t68 20.5q34 0 58 -24t24 -54q0 -35 -16 -57.5 t-58 -55.5q-19 -16 -114 -87t-189 -146z" />
<glyph unicode="&#xde;" horiz-adv-x="1271" d="M84 1384v15h649v-15q-97 -5 -149 -22q-64 -21 -64 -96v-170h262q115 0 211 -39t155.5 -117t59.5 -180q0 -100 -45.5 -182t-121 -133t-168.5 -79t-191 -28h-162v-199q0 -78 64 -102q20 -7 70.5 -14t90.5 -9v-14h-653v14q31 2 80 9t68 14q63 23 63 102v1112q0 85 -63 105 q-75 24 -156 28zM520 362h101q84 0 147.5 28t97.5 67.5t55 91.5t27 90t6 74q0 50 -8 96.5t-29 95t-53 84t-85 58t-120 22.5h-139v-707z" />
<glyph unicode="&#xdf;" horiz-adv-x="1212" d="M4 889v33h209v63q0 270 137 416q120 129 309 129q136 0 230 -72t94 -194q0 -152 -121 -246q-19 -14 -51 -36t-47.5 -33.5t-29 -30t-13.5 -37.5q0 -46 46 -101.5t177 -154.5q84 -62 126.5 -105.5t64.5 -98t22 -130.5q0 -133 -91 -226.5t-228 -93.5q-134 0 -206.5 60.5 t-72.5 150.5q0 58 26 93.5t77 35.5q43 0 64.5 -27.5t21.5 -70.5q0 -28 -20.5 -66.5t-20.5 -56.5q0 -35 38 -66.5t103 -31.5q83 0 132.5 58.5t49.5 137.5q0 70 -39.5 126t-163.5 145q-102 70 -156.5 136t-54.5 144q0 55 23.5 96.5t73.5 93t71 81.5q56 80 56 200 q0 143 -56 221t-153 78q-118 0 -172 -102.5t-60 -337.5v-1069h-331v14q55 3 90 15q55 17 55 92v768h-209z" />
<glyph unicode="&#xe0;" horiz-adv-x="1003" d="M76 193q0 49 11.5 88t29 64t46 46.5t53 33.5t60.5 26q38 14 167 56t178 68v146q0 18 -2 37t-12 52.5t-27 58.5t-52.5 44t-83.5 19q-86 0 -129 -55q0 -29 11.5 -84t11.5 -76q0 -34 -33 -61t-86 -27q-47 0 -69.5 30.5t-22.5 75.5q0 59 50 110t126 79t154 28q48 0 84 -2.5 t74.5 -10t65.5 -21t53 -36t41.5 -54.5t24.5 -77t9 -102q0 -104 -5 -278.5t-5 -194.5q0 -32 25.5 -68t70.5 -36q32 0 55.5 27.5t34.5 64.5t14 80h21q-9 -138 -63.5 -201t-153.5 -63q-71 0 -113 32.5t-67 104.5h-7q-57 -67 -135 -104.5t-168 -37.5q-106 0 -171.5 60t-65.5 158 zM274 223q0 -84 37 -130t103 -46q121 0 200 98l9 402q-82 -25 -131 -47q-105 -46 -161.5 -112t-56.5 -165zM305 1419q0 30 25 54t59 24q40 0 68.5 -19t56.5 -69q19 -33 77.5 -143t102.5 -185l-10 -8q-94 75 -190 147t-115 87q-42 33 -58 55t-16 57z" />
<glyph unicode="&#xe1;" horiz-adv-x="1003" d="M76 193q0 49 11.5 88t29 64t46 46.5t53 33.5t60.5 26q38 14 167 56t178 68v146q0 18 -2 37t-12 52.5t-27 58.5t-52.5 44t-83.5 19q-86 0 -129 -55q0 -29 11.5 -84t11.5 -76q0 -34 -33 -61t-86 -27q-47 0 -69.5 30.5t-22.5 75.5q0 59 50 110t126 79t154 28q48 0 84 -2.5 t74.5 -10t65.5 -21t53 -36t41.5 -54.5t24.5 -77t9 -102q0 -104 -5 -278.5t-5 -194.5q0 -32 25.5 -68t70.5 -36q32 0 55.5 27.5t34.5 64.5t14 80h21q-9 -138 -63.5 -201t-153.5 -63q-71 0 -113 32.5t-67 104.5h-7q-57 -67 -135 -104.5t-168 -37.5q-106 0 -171.5 60t-65.5 158 zM274 223q0 -84 37 -130t103 -46q121 0 200 98l9 402q-82 -25 -131 -47q-105 -46 -161.5 -112t-56.5 -165zM309 1083q44 76 101.5 183t78.5 143q28 47 57 67.5t68 20.5q34 0 58 -24t24 -54q0 -35 -15.5 -57t-57.5 -55q-19 -16 -114.5 -87.5t-189.5 -146.5z" />
<glyph unicode="&#xe2;" horiz-adv-x="1003" d="M76 193q0 49 11.5 88t29 64t46 46.5t53 33.5t60.5 26q38 14 167 56t178 68v146q0 18 -2 37t-12 52.5t-27 58.5t-52.5 44t-83.5 19q-86 0 -129 -55q0 -29 11.5 -84t11.5 -76q0 -34 -33 -61t-86 -27q-47 0 -69.5 30.5t-22.5 75.5q0 59 50 110t126 79t154 28q48 0 84 -2.5 t74.5 -10t65.5 -21t53 -36t41.5 -54.5t24.5 -77t9 -102q0 -104 -5 -278.5t-5 -194.5q0 -32 25.5 -68t70.5 -36q32 0 55.5 27.5t34.5 64.5t14 80h21q-9 -138 -63.5 -201t-153.5 -63q-71 0 -113 32.5t-67 104.5h-7q-57 -67 -135 -104.5t-168 -37.5q-106 0 -171.5 60t-65.5 158 zM180 1106q128 185 234 350q21 31 34.5 38t55.5 7q30 0 44 -4t20 -10t20 -27q21 -31 98 -148.5t137 -205.5l-14 -12l-309 262l-305 -262zM274 223q0 -84 37 -130t103 -46q121 0 200 98l9 402q-82 -25 -131 -47q-105 -46 -161.5 -112t-56.5 -165z" />
<glyph unicode="&#xe3;" horiz-adv-x="1003" d="M76 193q0 49 11.5 88t29 64t46 46.5t53 33.5t60.5 26q38 14 167 56t178 68v146q0 18 -2 37t-12 52.5t-27 58.5t-52.5 44t-83.5 19q-86 0 -129 -55q0 -29 11.5 -84t11.5 -76q0 -34 -33 -61t-86 -27q-47 0 -69.5 30.5t-22.5 75.5q0 59 50 110t126 79t154 28q48 0 84 -2.5 t74.5 -10t65.5 -21t53 -36t41.5 -54.5t24.5 -77t9 -102q0 -104 -5 -278.5t-5 -194.5q0 -32 25.5 -68t70.5 -36q32 0 55.5 27.5t34.5 64.5t14 80h21q-9 -138 -63.5 -201t-153.5 -63q-71 0 -113 32.5t-67 104.5h-7q-57 -67 -135 -104.5t-168 -37.5q-106 0 -171.5 60t-65.5 158 zM106 1145q14 40 36.5 80.5t54.5 82t75.5 67.5t89.5 26q53 0 105 -18.5t85 -41t73 -41t73 -18.5q66 0 110.5 34.5t76.5 102.5l18 -6q-11 -39 -34.5 -81.5t-56.5 -82.5t-78.5 -66t-92.5 -26q-56 0 -107 18t-82.5 39.5t-72 39.5t-78.5 18q-56 0 -95 -31.5t-81 -103.5zM274 223 q0 -84 37 -130t103 -46q121 0 200 98l9 402q-82 -25 -131 -47q-105 -46 -161.5 -112t-56.5 -165z" />
<glyph unicode="&#xe4;" horiz-adv-x="1003" d="M76 193q0 49 11.5 88t29 64t46 46.5t53 33.5t60.5 26q38 14 167 56t178 68v146q0 18 -2 37t-12 52.5t-27 58.5t-52.5 44t-83.5 19q-86 0 -129 -55q0 -29 11.5 -84t11.5 -76q0 -34 -33 -61t-86 -27q-47 0 -69.5 30.5t-22.5 75.5q0 59 50 110t126 79t154 28q48 0 84 -2.5 t74.5 -10t65.5 -21t53 -36t41.5 -54.5t24.5 -77t9 -102q0 -104 -5 -278.5t-5 -194.5q0 -32 25.5 -68t70.5 -36q32 0 55.5 27.5t34.5 64.5t14 80h21q-9 -138 -63.5 -201t-153.5 -63q-71 0 -113 32.5t-67 104.5h-7q-57 -67 -135 -104.5t-168 -37.5q-106 0 -171.5 60t-65.5 158 zM160 1253q0 49 34.5 85t81.5 36q53 0 88 -33.5t35 -78.5q0 -52 -35.5 -88.5t-87.5 -36.5q-47 0 -81.5 34.5t-34.5 81.5zM274 223q0 -84 37 -130t103 -46q121 0 200 98l9 402q-82 -25 -131 -47q-105 -46 -161.5 -112t-56.5 -165zM604 1253q0 50 35 85.5t84 35.5 q51 0 86 -33.5t35 -78.5q0 -51 -35 -88t-86 -37q-49 0 -84 34.5t-35 81.5z" />
<glyph unicode="&#xe5;" horiz-adv-x="1003" d="M76 193q0 49 11.5 88t29 64t46 46.5t53 33.5t60.5 26q38 14 167 56t178 68v146q0 18 -2 37t-12 52.5t-27 58.5t-52.5 44t-83.5 19q-86 0 -129 -55q0 -29 11.5 -84t11.5 -76q0 -34 -33 -61t-86 -27q-47 0 -69.5 30.5t-22.5 75.5q0 59 50 110t126 79t154 28q48 0 84 -2.5 t74.5 -10t65.5 -21t53 -36t41.5 -54.5t24.5 -77t9 -102q0 -104 -5 -278.5t-5 -194.5q0 -32 25.5 -68t70.5 -36q32 0 55.5 27.5t34.5 64.5t14 80h21q-9 -138 -63.5 -201t-153.5 -63q-71 0 -113 32.5t-67 104.5h-7q-57 -67 -135 -104.5t-168 -37.5q-106 0 -171.5 60t-65.5 158 zM272 1288q0 88 66.5 144.5t163.5 56.5q101 0 165 -55.5t64 -145.5q0 -89 -63 -145t-166 -56q-105 0 -167.5 55t-62.5 146zM274 223q0 -84 37 -130t103 -46q121 0 200 98l9 402q-82 -25 -131 -47q-105 -46 -161.5 -112t-56.5 -165zM379 1288q0 -75 31 -128.5t92 -53.5 q62 0 92.5 53t30.5 129q0 74 -31 128t-92 54t-92 -52.5t-31 -129.5z" />
<glyph unicode="&#xe6;" horiz-adv-x="1476" d="M76 193q0 49 11.5 88t29 64t46 46.5t53 33.5t60.5 26q38 14 167 56t178 68v146q0 18 -2 37t-12 52.5t-27 58.5t-52.5 44t-83.5 19q-86 0 -129 -55q0 -29 11.5 -84t11.5 -76q0 -34 -33 -61t-86 -27q-47 0 -69.5 30.5t-22.5 75.5q0 59 50 110t126 79t154 28 q111 0 182.5 -22t118.5 -88q44 44 115 77t165 33q102 0 178 -31t119.5 -85.5t64.5 -120.5t21 -144v-18h-610v-35q0 -479 305 -479q78 0 135 24t94 63t80 107l17 -10q-56 -113 -156 -180.5t-225 -67.5q-262 0 -387 209q-68 -111 -164.5 -160t-196.5 -49q-106 0 -171.5 60 t-65.5 158zM274 223q0 -84 37 -130t103 -46q126 0 200 92l9 408q-47 -14 -115 -41q-114 -46 -174 -113t-60 -170zM811 573l412 5q0 354 -187 354q-96 0 -158 -99.5t-67 -259.5z" />
<glyph unicode="&#xe7;" horiz-adv-x="890" d="M66 467q0 95 32 182.5t89 154.5t144 107.5t189 40.5q151 0 234.5 -68.5t83.5 -168.5q0 -51 -32 -83t-83 -32q-40 0 -73.5 24t-33.5 78q0 49 23 95.5t23 60.5q-6 33 -46.5 53.5t-95.5 20.5q-108 0 -178 -113.5t-70 -333.5q0 -198 77 -319t210 -121q205 0 311 186l19 -12 q-60 -107 -161 -175.5t-218 -68.5q-50 0 -94 9v-103q62 0 109.5 -6t91 -22t67 -48t23.5 -79q0 -43 -16 -76t-48 -54t-69 -35t-89.5 -20.5t-98 -9t-105.5 -2.5v25q45 0 79 2t74.5 10t66.5 21t44 37.5t18 58.5q0 26 -15 43.5t-43 25t-54 10t-62 2.5v224q-158 36 -240.5 164 t-82.5 315z" />
<glyph unicode="&#xe8;" horiz-adv-x="933" d="M66 471q0 93 29.5 179t83 153.5t136 108t181.5 40.5q102 0 178 -31t119.5 -85.5t64.5 -120.5t21 -144v-18h-611v-35q0 -479 305 -479q78 0 135 24t95 63t80 107l16 -10q-56 -113 -156 -180.5t-225 -67.5q-113 0 -200.5 39t-142 108t-82 157.5t-27.5 191.5zM268 573l412 5 q0 354 -186 354q-97 0 -159 -99.5t-67 -259.5zM274 1419q0 30 25 54t59 24q40 0 68.5 -19t56.5 -69q19 -33 78 -143t103 -185l-11 -8q-94 75 -190 147t-115 87q-42 33 -58 55t-16 57z" />
<glyph unicode="&#xe9;" horiz-adv-x="933" d="M66 471q0 93 29.5 179t83 153.5t136 108t181.5 40.5q102 0 178 -31t119.5 -85.5t64.5 -120.5t21 -144v-18h-611v-35q0 -479 305 -479q78 0 135 24t95 63t80 107l16 -10q-56 -113 -156 -180.5t-225 -67.5q-113 0 -200.5 39t-142 108t-82 157.5t-27.5 191.5zM268 573l412 5 q0 354 -186 354q-97 0 -159 -99.5t-67 -259.5zM330 1083q44 76 101.5 183t78.5 143q28 47 57 67.5t68 20.5q34 0 58 -24t24 -54q0 -35 -16 -57t-58 -55q-20 -16 -114.5 -87.5t-188.5 -146.5z" />
<glyph unicode="&#xea;" horiz-adv-x="933" d="M66 471q0 93 29.5 179t83 153.5t136 108t181.5 40.5q102 0 178 -31t119.5 -85.5t64.5 -120.5t21 -144v-18h-611v-35q0 -479 305 -479q78 0 135 24t95 63t80 107l16 -10q-56 -113 -156 -180.5t-225 -67.5q-113 0 -200.5 39t-142 108t-82 157.5t-27.5 191.5zM166 1106 q112 163 233 350q21 31 34.5 38t55.5 7q30 0 44 -4t20 -10t20 -27q22 -31 99 -148.5t137 -205.5l-14 -12l-310 262l-305 -262zM268 573l412 5q0 354 -186 354q-97 0 -159 -99.5t-67 -259.5z" />
<glyph unicode="&#xeb;" horiz-adv-x="933" d="M66 471q0 93 29.5 179t83 153.5t136 108t181.5 40.5q102 0 178 -31t119.5 -85.5t64.5 -120.5t21 -144v-18h-611v-35q0 -479 305 -479q78 0 135 24t95 63t80 107l16 -10q-56 -113 -156 -180.5t-225 -67.5q-113 0 -200.5 39t-142 108t-82 157.5t-27.5 191.5zM145 1253 q0 49 35 85t82 36q53 0 88 -33.5t35 -78.5q0 -52 -35.5 -88.5t-87.5 -36.5q-47 0 -82 34.5t-35 81.5zM268 573l412 5q0 354 -186 354q-97 0 -159 -99.5t-67 -259.5zM590 1253q0 50 35 85.5t84 35.5q51 0 85.5 -33.5t34.5 -78.5q0 -51 -34.5 -88t-85.5 -37q-49 0 -84 34.5 t-35 81.5z" />
<glyph unicode="&#xec;" horiz-adv-x="585" d="M12 1419q0 30 25 54t59 24q40 0 68.5 -19t56.5 -69q19 -33 77.5 -143t102.5 -185l-10 -8q-94 75 -190 147t-115 87q-42 33 -58 55t-16 57zM37 903v12l354 23l8 -8v-799q0 -74 56 -98q34 -15 96 -19v-14h-483v14q44 2 90 15q55 17 55 92v647q-7 76 -55 109q-33 21 -121 26 z" />
<glyph unicode="&#xed;" horiz-adv-x="585" d="M37 903v12l354 23l8 -8v-799q0 -74 56 -98q34 -15 96 -19v-14h-483v14q44 2 90 15q55 17 55 92v647q-7 76 -55 109q-33 21 -121 26zM145 1083q43 75 101 182t80 144q28 47 57 67.5t68 20.5q34 0 57.5 -24t23.5 -54q0 -35 -15.5 -57t-57.5 -55q-20 -16 -114.5 -87.5 t-188.5 -146.5z" />
<glyph unicode="&#xee;" horiz-adv-x="585" d="M-6 1096q44 84 108 213.5t76 152.5q23 45 92 45t88 -41q15 -30 77 -155t108 -215l-13 -9l-262 267l-264 -267zM37 903v12l354 23l8 -8v-799q0 -74 56 -98q34 -15 96 -19v-14h-483v14q44 2 90 15q55 17 55 92v647q-7 76 -55 109q-33 21 -121 26z" />
<glyph unicode="&#xef;" horiz-adv-x="585" d="M-45 1251q0 49 34 84t81 35q50 0 84 -33.5t34 -79.5q0 -50 -34 -85t-84 -35q-47 0 -81 33.5t-34 80.5zM37 903v12l354 23l8 -8v-799q0 -74 56 -98q34 -15 96 -19v-14h-483v14q44 2 90 15q55 17 55 92v647q-7 76 -55 109q-33 21 -121 26zM346 1251q0 50 34 84.5t83 34.5 t83 -33.5t34 -79.5q0 -50 -34 -85t-83 -35t-83 33.5t-34 80.5z" />
<glyph unicode="&#xf0;" horiz-adv-x="1071" d="M63 467q0 218 137.5 351.5t344.5 133.5q84 0 148 -32t98 -82l8 2q-36 285 -183 475l-231 -150l-20 33l225 148q-90 111 -168 167l8 15q127 -65 221 -144l185 123l20 -34l-174 -115q328 -290 328 -764q0 -97 -18 -187.5t-56 -170t-92.5 -138.5t-132.5 -93t-170 -34 q-94 0 -178.5 31t-152 90.5t-107.5 156t-40 218.5zM270 475q0 -102 15.5 -187.5t46.5 -152.5t84 -105t123 -38q88 0 148 65.5t87 170.5t27 243q0 94 -13.5 172.5t-42.5 145.5t-81.5 105t-124.5 38q-76 0 -131 -40t-84 -109t-41.5 -144.5t-12.5 -163.5z" />
<glyph unicode="&#xf1;" horiz-adv-x="1196" d="M55 903v12l334 23l8 -8v-146h4q5 5 23.5 23t24.5 24t24.5 22.5t28 23l28.5 19.5t33 19t35 14.5t40.5 12.5t44 7t50.5 3q139 0 209 -86t70 -237v-500q0 -75 53 -98q34 -14 90 -17v-14h-483v14q52 3 96 15q55 17 55 92v532q0 101 -50 160t-120 59q-100 0 -166.5 -43.5 t-89.5 -91.5v-606q0 -74 56 -98q34 -15 96 -19v-14h-483v14q44 2 90 15q55 17 55 92v647q-7 76 -55 109q-35 22 -101 26zM199 1145q14 40 36.5 80.5t54.5 82t75.5 67.5t89.5 26q53 0 105 -18.5t85 -41t73 -41t73 -18.5q66 0 109.5 34.5t76.5 102.5l18 -6 q-11 -39 -34.5 -81.5t-56.5 -82.5t-78.5 -66t-92.5 -26q-56 0 -107 18t-82.5 39.5t-72 39.5t-78.5 18q-56 0 -95 -31.5t-81 -103.5z" />
<glyph unicode="&#xf2;" horiz-adv-x="1071" d="M63 459q0 219 132 356t346 137q211 0 339 -135.5t128 -343.5q0 -138 -55 -250.5t-166 -182t-261 -69.5q-124 0 -228.5 58t-169.5 171t-65 259zM270 475q0 -102 15.5 -187.5t46.5 -152.5t84 -105t123 -38q88 0 148 65.5t87 170.5t27 243q0 94 -13.5 172.5t-42.5 145.5 t-81.5 105t-124.5 38q-76 0 -131 -40t-84 -109t-41.5 -144.5t-12.5 -163.5zM319 1419q0 30 25 54t59 24q40 0 68.5 -19t56.5 -69q19 -33 78 -143t103 -185l-11 -8q-94 75 -190 147t-115 87q-42 33 -58 55t-16 57z" />
<glyph unicode="&#xf3;" horiz-adv-x="1071" d="M63 459q0 219 132 356t346 137q211 0 339 -135.5t128 -343.5q0 -138 -55 -250.5t-166 -182t-261 -69.5q-124 0 -228.5 58t-169.5 171t-65 259zM270 475q0 -102 15.5 -187.5t46.5 -152.5t84 -105t123 -38q88 0 148 65.5t87 170.5t27 243q0 94 -13.5 172.5t-42.5 145.5 t-81.5 105t-124.5 38q-76 0 -131 -40t-84 -109t-41.5 -144.5t-12.5 -163.5zM362 1083q43 75 101 182t80 144q28 47 57 67.5t68 20.5q34 0 58 -24t24 -54q0 -35 -16 -57t-58 -55q-20 -16 -114.5 -87.5t-188.5 -146.5z" />
<glyph unicode="&#xf4;" horiz-adv-x="1071" d="M63 459q0 219 132 356t346 137q211 0 339 -135.5t128 -343.5q0 -138 -55 -250.5t-166 -182t-261 -69.5q-124 0 -228.5 58t-169.5 171t-65 259zM211 1106q112 163 233 350q21 31 34.5 38t56.5 7q30 0 44 -4t19.5 -10t19.5 -27q22 -31 99 -148.5t137 -205.5l-14 -12 l-310 262l-305 -262zM270 475q0 -102 15.5 -187.5t46.5 -152.5t84 -105t123 -38q88 0 148 65.5t87 170.5t27 243q0 94 -13.5 172.5t-42.5 145.5t-81.5 105t-124.5 38q-76 0 -131 -40t-84 -109t-41.5 -144.5t-12.5 -163.5z" />
<glyph unicode="&#xf5;" horiz-adv-x="1071" d="M63 459q0 219 132 356t346 137q211 0 339 -135.5t128 -343.5q0 -138 -55 -250.5t-166 -182t-261 -69.5q-124 0 -228.5 58t-169.5 171t-65 259zM135 1145q14 40 36.5 80.5t54.5 82t75.5 67.5t89.5 26q53 0 105 -18.5t85 -41t73 -41t73 -18.5q66 0 109.5 34.5t76.5 102.5 l19 -6q-11 -39 -34.5 -81.5t-56.5 -82.5t-78.5 -66t-92.5 -26q-56 0 -107 18t-82.5 39.5t-72 39.5t-78.5 18q-56 0 -95 -31.5t-81 -103.5zM270 475q0 -102 15.5 -187.5t46.5 -152.5t84 -105t123 -38q88 0 148 65.5t87 170.5t27 243q0 94 -13.5 172.5t-42.5 145.5t-81.5 105 t-124.5 38q-76 0 -131 -40t-84 -109t-41.5 -144.5t-12.5 -163.5z" />
<glyph unicode="&#xf6;" horiz-adv-x="1024" d="M63 459q0 219 132 356t346 137q211 0 339 -135.5t128 -343.5q0 -138 -55 -250.5t-166 -182t-261 -69.5q-124 0 -228.5 58t-169.5 171t-65 259zM193 1253q0 49 34.5 85t81.5 36q53 0 88 -33.5t35 -78.5q0 -52 -35.5 -88.5t-87.5 -36.5q-47 0 -81.5 34.5t-34.5 81.5z M270 475q0 -102 15.5 -187.5t46.5 -152.5t84 -105t123 -38q88 0 148 65.5t87 170.5t27 243q0 94 -13.5 172.5t-42.5 145.5t-81.5 105t-124.5 38q-76 0 -131 -40t-84 -109t-41.5 -144.5t-12.5 -163.5zM637 1253q0 50 35 85.5t84 35.5q51 0 86 -33.5t35 -78.5q0 -51 -35 -88 t-86 -37q-49 0 -84 34.5t-35 81.5z" />
<glyph unicode="&#xf7;" horiz-adv-x="1144" d="M82 496v71h981v-71h-981zM469 229q0 43 30 74t72 31q44 0 75.5 -31t31.5 -74q0 -44 -31 -74t-76 -30q-43 0 -72.5 30t-29.5 74zM469 831q0 44 29.5 74.5t72.5 30.5q44 0 75.5 -30.5t31.5 -74.5q0 -43 -31.5 -72.5t-75.5 -29.5q-43 0 -72.5 29.5t-29.5 72.5z" />
<glyph unicode="&#xf8;" horiz-adv-x="1071" d="M63 459q0 219 132 356t346 137q187 0 313 -110l147 168l19 -17l-148 -170q136 -136 136 -350q0 -138 -55 -250.5t-166 -182t-261 -69.5q-174 0 -303 111l-117 -133l-20 16l119 135q-142 139 -142 359zM270 475q0 -162 31 -264l463 528q-63 193 -225 193q-76 0 -131 -40 t-84 -109t-41.5 -144.5t-12.5 -163.5zM311 182q68 -190 228 -190q88 0 148 65.5t87 170.5t27 243q0 136 -29 240z" />
<glyph unicode="&#xf9;" horiz-adv-x="1161" d="M29 901v12l329 25l15 -14v-672q0 -101 46 -156t116 -55q160 0 247 139v592q-6 70 -53 102q-36 23 -133 27v12l358 25l15 -14v-768q7 -73 47 -101q31 -20 104 -24v-13l-321 -22l-15 14v125h-6q-72 -72 -108 -97q-91 -63 -219 -63q-136 0 -201.5 90.5t-65.5 243.5v457 q-6 70 -53 102q-47 30 -102 33zM344 1419q0 30 25 54t59 24q40 0 68.5 -19t56.5 -69q19 -33 77.5 -143t102.5 -185l-10 -8q-94 75 -190 147t-115 87q-42 33 -58 55t-16 57z" />
<glyph unicode="&#xfa;" horiz-adv-x="1161" d="M29 901v12l329 25l15 -14v-672q0 -101 46 -156t116 -55q160 0 247 139v592q-6 70 -53 102q-36 23 -133 27v12l358 25l15 -14v-768q7 -73 47 -101q31 -20 104 -24v-13l-321 -22l-15 14v125h-6q-72 -72 -108 -97q-91 -63 -219 -63q-136 0 -201.5 90.5t-65.5 243.5v457 q-6 70 -53 102q-47 30 -102 33zM410 1083q44 76 101.5 183t78.5 143q28 47 57 67.5t68 20.5q34 0 58 -24t24 -54q0 -35 -16 -57t-58 -55q-20 -16 -114.5 -87.5t-188.5 -146.5z" />
<glyph unicode="&#xfb;" horiz-adv-x="1161" d="M29 901v12l329 25l15 -14v-672q0 -101 46 -156t116 -55q160 0 247 139v592q-6 70 -53 102q-36 23 -133 27v12l358 25l15 -14v-768q7 -73 47 -101q31 -20 104 -24v-13l-321 -22l-15 14v125h-6q-72 -72 -108 -97q-91 -63 -219 -63q-136 0 -201.5 90.5t-65.5 243.5v457 q-6 70 -53 102q-47 30 -102 33zM238 1106q112 163 233 350q21 31 34.5 38t55.5 7q30 0 44 -4t20 -10t20 -27q22 -31 99 -148.5t137 -205.5l-15 -12l-309 262l-305 -262z" />
<glyph unicode="&#xfc;" horiz-adv-x="1161" d="M29 901v12l329 25l15 -14v-672q0 -101 46 -156t116 -55q160 0 247 139v592q-6 70 -53 102q-36 23 -133 27v12l358 25l15 -14v-768q7 -73 47 -101q31 -20 104 -24v-13l-321 -22l-15 14v125h-6q-72 -72 -108 -97q-91 -63 -219 -63q-136 0 -201.5 90.5t-65.5 243.5v457 q-6 70 -53 102q-47 30 -102 33zM217 1253q0 49 35 85t82 36q53 0 88 -33.5t35 -78.5q0 -52 -35.5 -88.5t-87.5 -36.5q-47 0 -82 34.5t-35 81.5zM662 1253q0 50 34.5 85.5t83.5 35.5q51 0 86 -33.5t35 -78.5q0 -51 -35 -88t-86 -37q-49 0 -83.5 34t-34.5 82z" />
<glyph unicode="&#xfd;" horiz-adv-x="946" d="M-27 911v15h449v-19q-123 -5 -123 -43q0 -8 14 -43q21 -54 66.5 -155.5t108.5 -237t94 -205.5q98 234 223 559q12 32 12 58q0 52 -155 73v13h327v-11q-46 -7 -83 -38t-58 -76q-77 -173 -342 -832q-46 -114 -88 -194.5t-77 -128.5t-72.5 -75t-69 -35.5t-72.5 -8.5 q-31 0 -64 12.5t-60.5 46t-27.5 80.5q0 43 33 81t84 38q46 0 80.5 -27.5t34.5 -83.5l-17 -110q41 4 86 48t80 104.5t64.5 120.5t45.5 101l15 42q-65 157 -128.5 300.5t-141.5 314t-98 216.5q-20 45 -50.5 68t-89.5 32zM430 1083q44 76 101.5 183t78.5 143q28 47 57 67.5 t68 20.5q34 0 58 -24t24 -54q0 -35 -16 -57t-58 -55q-20 -16 -114.5 -87.5t-188.5 -146.5z" />
<glyph unicode="&#xfe;" horiz-adv-x="1159" d="M23 -449q54 3 112 19q53 16 53 96v1696q-6 70 -53 102q-39 25 -112 29v12l342 23l8 -10v-697l8 -2q47 51 118.5 92t157.5 41q181 0 303.5 -138t122.5 -359q0 -136 -66 -247.5t-172 -172t-227 -60.5q-149 0 -235 64h-8v-361q0 -74 57 -96q24 -9 69 -19.5t72 -11.5v-14 h-550v14zM375 156q22 -62 79 -112t148 -50q130 0 201 124.5t71 338.5q0 88 -16 162t-49 134.5t-89.5 95t-131.5 34.5q-130 0 -213 -97v-630z" />
<glyph unicode="&#xff;" horiz-adv-x="946" d="M-27 911v15h449v-19q-123 -5 -123 -43q0 -8 14 -43q21 -54 66.5 -155.5t108.5 -237t94 -205.5q98 234 223 559q12 32 12 58q0 52 -155 73v13h327v-11q-46 -7 -83 -38t-58 -76q-77 -173 -342 -832q-46 -114 -88 -194.5t-77 -128.5t-72.5 -75t-69 -35.5t-72.5 -8.5 q-31 0 -64 12.5t-60.5 46t-27.5 80.5q0 43 33 81t84 38q46 0 80.5 -27.5t34.5 -83.5l-17 -110q41 4 86 48t80 104.5t64.5 120.5t45.5 101l15 42q-65 157 -128.5 300.5t-141.5 314t-98 216.5q-20 45 -50.5 68t-89.5 32zM168 1253q0 49 35 85t82 36q53 0 88 -33.5t35 -78.5 q0 -52 -35.5 -88.5t-87.5 -36.5q-47 0 -82 34.5t-35 81.5zM612 1253q0 50 35 85.5t84 35.5q51 0 86 -33.5t35 -78.5q0 -51 -35 -88t-86 -37q-49 0 -84 34.5t-35 81.5z" />
<glyph unicode="&#x152;" horiz-adv-x="2146" d="M78 705q0 137 43.5 252.5t117.5 196t174 136.5t212.5 82.5t232.5 26.5h1131v-318h-19q-20 77 -94 178t-135 109q-65 8 -207 8h-231v-639h204q53 0 92 13.5t48.5 22t31.5 30.5t45.5 90.5t28.5 112.5h19v-572h-19q-3 44 -29 118.5t-45 94.5t-32.5 31t-51 23t-88.5 12h-204 v-502q0 -44 3 -72.5t14.5 -50.5t26 -33.5t45 -18.5t64.5 -9t90 -2h29q90 0 137 1.5t104 12.5t78 33q42 44 106 157t81 164h18l-26 -393h-1250q-67 0 -136 10.5t-143 35t-140.5 61t-127 93.5t-104 127.5t-69 167.5t-25.5 210zM326 707q0 -145 39 -270.5t110 -218 t176.5 -145.5t231.5 -53q111 0 156.5 37.5t45.5 104.5v1065q0 149 -241 149q-130 0 -230 -49t-162.5 -138.5t-94 -211t-31.5 -270.5z" />
<glyph unicode="&#x153;" horiz-adv-x="1669" d="M63 459q0 219 132 356t346 137q230 0 362 -161q124 161 328 161q102 0 178 -31t119.5 -85.5t64.5 -120.5t21 -144v-18h-610v-35q0 -479 305 -479q78 0 135 24t94 63t80 107l16 -10q-56 -113 -156 -180.5t-225 -67.5q-230 0 -356 162q-62 -79 -156.5 -122.5t-214.5 -43.5 q-124 0 -228.5 58t-169.5 171t-65 259zM270 475q0 -102 15.5 -187.5t46.5 -152.5t84 -105t123 -38q88 0 148 65.5t87 170.5t27 243q0 94 -13.5 172.5t-42.5 145.5t-81.5 105t-124.5 38q-76 0 -131 -40t-84 -109t-41.5 -144.5t-12.5 -163.5zM1004 573l411 5q0 354 -186 354 q-96 0 -158 -99.5t-67 -259.5z" />
<glyph unicode="&#x178;" horiz-adv-x="1300" d="M-66 1384v15h660v-15q-75 -4 -141 -21.5t-66 -49.5q0 -20 100 -205q121 -222 258 -465q201 334 265 451q86 159 86 192q0 24 -23 43t-61.5 29.5t-76 16.5t-77.5 9v15h494v-15q-53 -4 -92 -28q-41 -24 -64 -44.5t-51 -60.5q-82 -118 -336 -567q-37 -67 -47 -109t-10 -120 v-310q0 -75 63 -102q18 -7 78.5 -17t89.5 -12v-14h-680v14q32 2 90.5 10t77.5 15q64 24 64 102v387q0 48 -54 154q-126 248 -291 528q-61 106 -122 142q-51 28 -134 32zM348 1681q0 49 35 85t82 36q53 0 88 -33.5t35 -78.5q0 -52 -35.5 -88.5t-87.5 -36.5q-47 0 -82 34.5 t-35 81.5zM793 1681q0 50 34.5 85.5t83.5 35.5q51 0 86 -33.5t35 -78.5q0 -51 -35 -88t-86 -37q-49 0 -83.5 34t-34.5 82z" />
<glyph unicode="&#x2c6;" horiz-adv-x="1024" d="M190 1106q128 185 234 350q21 31 34.5 38t55.5 7q30 0 44 -4t20 -10t20 -27q22 -31 99 -148.5t137 -205.5l-15 -12l-309 262l-305 -262z" />
<glyph unicode="&#x2dc;" horiz-adv-x="1024" d="M113 1145q14 40 36.5 80.5t54.5 82t75.5 67.5t89.5 26q53 0 105 -18.5t85 -41t73 -41t73 -18.5q66 0 109.5 34.5t76.5 102.5l18 -6q-11 -39 -34.5 -81.5t-56.5 -82.5t-78.5 -66t-92.5 -26q-56 0 -107 18t-82.5 39.5t-72 39.5t-78.5 18q-56 0 -95 -31.5t-81 -103.5z" />
<glyph unicode="&#x2000;" horiz-adv-x="955" />
<glyph unicode="&#x2001;" horiz-adv-x="1911" />
<glyph unicode="&#x2002;" horiz-adv-x="955" />
<glyph unicode="&#x2003;" horiz-adv-x="1911" />
<glyph unicode="&#x2004;" horiz-adv-x="637" />
<glyph unicode="&#x2005;" horiz-adv-x="477" />
<glyph unicode="&#x2006;" horiz-adv-x="318" />
<glyph unicode="&#x2007;" horiz-adv-x="318" />
<glyph unicode="&#x2008;" horiz-adv-x="238" />
<glyph unicode="&#x2009;" horiz-adv-x="382" />
<glyph unicode="&#x200a;" horiz-adv-x="106" />
<glyph unicode="&#x2010;" horiz-adv-x="763" d="M61 449v141h641v-141h-641z" />
<glyph unicode="&#x2011;" horiz-adv-x="763" d="M61 449v141h641v-141h-641z" />
<glyph unicode="&#x2012;" horiz-adv-x="763" d="M61 449v141h641v-141h-641z" />
<glyph unicode="&#x2013;" horiz-adv-x="1114" d="M102 461v121h910v-121h-910z" />
<glyph unicode="&#x2014;" horiz-adv-x="1810" d="M102 461v121h1606v-121h-1606z" />
<glyph unicode="&#x2018;" horiz-adv-x="378" d="M45 1180q0 50 20 97t45.5 79t68 65t67 48.5t63.5 37.5l13 -20q-192 -111 -197 -277h65q69 0 101.5 -35t32.5 -85q0 -44 -33 -79.5t-86 -35.5q-160 0 -160 205z" />
<glyph unicode="&#x2019;" horiz-adv-x="378" d="M78 1395q0 44 33 79t86 35q159 0 159 -204q0 -50 -20 -97t-45.5 -79t-67.5 -65.5t-67.5 -49t-63.5 -37.5l-12 20q191 110 196 277h-65q-69 0 -101 35t-32 86z" />
<glyph unicode="&#x201a;" horiz-adv-x="378" d="M43 -285q81 43 141.5 123.5t67.5 165.5h-70q-66 0 -99.5 37t-33.5 86q0 42 34 79.5t79 37.5q87 0 124.5 -52.5t37.5 -148.5q0 -94 -76 -187.5t-199 -152.5z" />
<glyph unicode="&#x201c;" horiz-adv-x="722" d="M45 1180q0 50 20 97t45.5 79t68 65t67 48.5t63.5 37.5l13 -20q-192 -111 -197 -277h65q69 0 101.5 -35t32.5 -85q0 -44 -33 -79.5t-86 -35.5q-160 0 -160 205zM389 1180q0 50 20 97t45.5 79t68 65t67 48.5t63.5 37.5l13 -20q-192 -111 -197 -277h66q69 0 101 -34.5 t32 -85.5q0 -44 -33 -79.5t-86 -35.5q-160 0 -160 205z" />
<glyph unicode="&#x201d;" horiz-adv-x="722" d="M78 1395q0 44 33 79t86 35q159 0 159 -204q0 -50 -20 -97t-45.5 -79t-67.5 -65.5t-67.5 -49t-63.5 -37.5l-12 20q191 110 196 277h-65q-69 0 -101 35t-32 86zM422 1395q0 44 33 79t86 35q159 0 159 -204q0 -50 -20 -97t-45.5 -79t-67.5 -65.5t-67.5 -49t-63.5 -37.5 l-12 20q192 111 197 277h-66q-69 0 -101 35t-32 86z" />
<glyph unicode="&#x201e;" horiz-adv-x="751" d="M43 -285q81 43 141.5 123.5t67.5 165.5h-70q-66 0 -99.5 37t-33.5 86q0 42 34 79.5t79 37.5q87 0 124.5 -52.5t37.5 -148.5q0 -94 -76 -187.5t-199 -152.5zM416 -285q81 43 141.5 123.5t67.5 165.5h-70q-66 0 -99.5 37t-33.5 86q0 42 34 79.5t79 37.5q87 0 124 -52.5 t37 -148.5q0 -95 -76 -188t-198 -152z" />
<glyph unicode="&#x2022;" horiz-adv-x="843" d="M195 668q0 95 65 161t160 66t161 -66t66 -161t-66 -160.5t-161 -65.5t-160 65.5t-65 160.5z" />
<glyph unicode="&#x2026;" horiz-adv-x="1642" d="M129 113q0 54 38.5 92.5t92.5 38.5t92.5 -38.5t38.5 -92.5t-38.5 -91.5t-92.5 -37.5t-92.5 37.5t-38.5 91.5zM690 113q0 54 38.5 92.5t92.5 38.5t92.5 -38.5t38.5 -92.5t-38.5 -91.5t-92.5 -37.5t-92.5 37.5t-38.5 91.5zM1251 113q0 54 38.5 92.5t92.5 38.5t92.5 -38.5 t38.5 -92.5t-38.5 -91.5t-92.5 -37.5t-92.5 37.5t-38.5 91.5z" />
<glyph unicode="&#x202f;" horiz-adv-x="382" />
<glyph unicode="&#x2039;" horiz-adv-x="692" d="M90 459q0 28 8.5 42.5t34.5 35.5q18 14 114 87t184 141t136 109l8 -8l-303 -411l303 -406l-8 -8q-66 53 -239 187.5t-191 148.5q-29 24 -38 38.5t-9 43.5z" />
<glyph unicode="&#x203a;" horiz-adv-x="692" d="M117 49l303 406l-303 411l8 8q47 -41 134.5 -109t184.5 -141t115 -87q26 -21 34.5 -35.5t8.5 -42.5q0 -29 -9 -43.5t-38 -38.5q-223 -171 -430 -336z" />
<glyph unicode="&#x205f;" horiz-adv-x="477" />
<glyph unicode="&#x20ac;" horiz-adv-x="1169" d="M59 494v26h150q-3 104 2 176h-152v27h156q20 153 89 275.5t188 197t270 74.5q160 0 255 -73t95 -175q0 -71 -29 -108t-71 -37q-48 0 -74.5 29.5t-26.5 72.5q0 34 27 80t27 76q-7 51 -66 83.5t-143 32.5q-142 0 -227 -141t-103 -387h465v-27h-467q-2 -68 2 -176h391v-26 h-389q8 -128 46.5 -227.5t114.5 -161.5t181 -62q122 0 205 68.5t141 189.5l17 -8q-33 -72 -69 -126t-86.5 -100.5t-119.5 -71t-153 -24.5q-207 0 -338.5 135.5t-155.5 387.5h-152z" />
<glyph unicode="&#x2122;" horiz-adv-x="1335" d="M66 1247v152h477v-152h-11q-40 125 -75 129q-18 2 -60 2h-43v-434q0 -25 23 -35l65 -12v-10h-276v10q66 9 67 10q25 9 25 33v438h-45q-41 0 -59 -2q-22 -3 -45.5 -49t-32.5 -80h-10zM600 887v10q65 11 76 18q24 18 24 101v293q0 42 -22 61q-27 16 -72 16v13h203l145 -355 l113 287q12 36 16 68h207v-13q-21 0 -63 -12q-21 -9 -21 -35v-393q0 -26 21 -35q10 -6 65 -14v-10h-276v10q3 0 21.5 2t34.5 4.5t20 5.5q20 11 20 37v414h-12l-180 -467h-13l-172 457h-12v-328q0 -79 25 -100q17 -15 79 -25v-10h-227z" />
<glyph unicode="&#x25fc;" horiz-adv-x="921" d="M0 0v922h922v-922h-922z" />
</font>
</defs>
</svg>
